<mxfile host="Electron" modified="2024-07-14T21:56:55.461Z" agent="Mozilla/5.0 (X11; Linux x86_64) AppleWebKit/537.36 (KHTML, like Gecko) draw.io/24.6.4 Chrome/124.0.6367.207 Electron/30.0.6 Safari/537.36" etag="yj6le27x_6zrLrTR6098" version="24.6.4" type="device">
  <diagram name="Page-1" id="EtJEMqAORgiOwgarwapl">
    <mxGraphModel dx="4522" dy="3087" grid="1" gridSize="10" guides="1" tooltips="1" connect="1" arrows="1" fold="1" page="1" pageScale="1" pageWidth="827" pageHeight="1169" math="0" shadow="0">
      <root>
        <mxCell id="0" />
        <mxCell id="1" parent="0" />
        <mxCell id="zfkykt9MSWh2Pb5mOjTY-151" style="edgeStyle=orthogonalEdgeStyle;rounded=0;orthogonalLoop=1;jettySize=auto;html=1;entryX=0;entryY=0.5;entryDx=0;entryDy=0;exitX=0.82;exitY=0.001;exitDx=0;exitDy=0;exitPerimeter=0;" edge="1" parent="1" source="zfkykt9MSWh2Pb5mOjTY-158" target="zfkykt9MSWh2Pb5mOjTY-149">
          <mxGeometry relative="1" as="geometry" />
        </mxCell>
        <mxCell id="zfkykt9MSWh2Pb5mOjTY-152" value="1, 1" style="edgeLabel;html=1;align=center;verticalAlign=middle;resizable=0;points=[];" vertex="1" connectable="0" parent="zfkykt9MSWh2Pb5mOjTY-151">
          <mxGeometry x="-0.896" y="-2" relative="1" as="geometry">
            <mxPoint x="1" y="-1" as="offset" />
          </mxGeometry>
        </mxCell>
        <mxCell id="zfkykt9MSWh2Pb5mOjTY-176" style="edgeStyle=orthogonalEdgeStyle;rounded=0;orthogonalLoop=1;jettySize=auto;html=1;" edge="1" parent="1" source="zfkykt9MSWh2Pb5mOjTY-1" target="zfkykt9MSWh2Pb5mOjTY-172">
          <mxGeometry relative="1" as="geometry" />
        </mxCell>
        <mxCell id="zfkykt9MSWh2Pb5mOjTY-177" value="1, 1" style="edgeLabel;html=1;align=center;verticalAlign=middle;resizable=0;points=[];" vertex="1" connectable="0" parent="zfkykt9MSWh2Pb5mOjTY-176">
          <mxGeometry x="-0.7247" y="-2" relative="1" as="geometry">
            <mxPoint as="offset" />
          </mxGeometry>
        </mxCell>
        <mxCell id="zfkykt9MSWh2Pb5mOjTY-193" style="edgeStyle=orthogonalEdgeStyle;rounded=0;orthogonalLoop=1;jettySize=auto;html=1;exitX=0.25;exitY=0;exitDx=0;exitDy=0;entryX=0.5;entryY=1;entryDx=0;entryDy=0;" edge="1" parent="1" source="zfkykt9MSWh2Pb5mOjTY-1" target="zfkykt9MSWh2Pb5mOjTY-189">
          <mxGeometry relative="1" as="geometry" />
        </mxCell>
        <mxCell id="zfkykt9MSWh2Pb5mOjTY-194" value="0, 1" style="edgeLabel;html=1;align=center;verticalAlign=middle;resizable=0;points=[];" vertex="1" connectable="0" parent="zfkykt9MSWh2Pb5mOjTY-193">
          <mxGeometry x="-0.7959" y="2" relative="1" as="geometry">
            <mxPoint as="offset" />
          </mxGeometry>
        </mxCell>
        <mxCell id="zfkykt9MSWh2Pb5mOjTY-1" value="Player" style="swimlane;fontStyle=0;childLayout=stackLayout;horizontal=1;startSize=26;fillColor=none;horizontalStack=0;resizeParent=1;resizeParentMax=0;resizeLast=0;collapsible=1;marginBottom=0;whiteSpace=wrap;html=1;" vertex="1" parent="1">
          <mxGeometry x="-305" y="662" width="230" height="234" as="geometry" />
        </mxCell>
        <mxCell id="zfkykt9MSWh2Pb5mOjTY-2" value="id: int" style="text;strokeColor=none;fillColor=none;align=left;verticalAlign=top;spacingLeft=4;spacingRight=4;overflow=hidden;rotatable=0;points=[[0,0.5],[1,0.5]];portConstraint=eastwest;whiteSpace=wrap;html=1;" vertex="1" parent="zfkykt9MSWh2Pb5mOjTY-1">
          <mxGeometry y="26" width="230" height="26" as="geometry" />
        </mxCell>
        <mxCell id="zfkykt9MSWh2Pb5mOjTY-141" value="licence: varchar" style="text;strokeColor=none;fillColor=none;align=left;verticalAlign=top;spacingLeft=4;spacingRight=4;overflow=hidden;rotatable=0;points=[[0,0.5],[1,0.5]];portConstraint=eastwest;whiteSpace=wrap;html=1;" vertex="1" parent="zfkykt9MSWh2Pb5mOjTY-1">
          <mxGeometry y="52" width="230" height="26" as="geometry" />
        </mxCell>
        <mxCell id="zfkykt9MSWh2Pb5mOjTY-25" value="force_index: varchar" style="text;strokeColor=none;fillColor=none;align=left;verticalAlign=top;spacingLeft=4;spacingRight=4;overflow=hidden;rotatable=0;points=[[0,0.5],[1,0.5]];portConstraint=eastwest;whiteSpace=wrap;html=1;" vertex="1" parent="zfkykt9MSWh2Pb5mOjTY-1">
          <mxGeometry y="78" width="230" height="26" as="geometry" />
        </mxCell>
        <mxCell id="zfkykt9MSWh2Pb5mOjTY-26" value="ranking: enum" style="text;strokeColor=none;fillColor=none;align=left;verticalAlign=top;spacingLeft=4;spacingRight=4;overflow=hidden;rotatable=0;points=[[0,0.5],[1,0.5]];portConstraint=eastwest;whiteSpace=wrap;html=1;" vertex="1" parent="zfkykt9MSWh2Pb5mOjTY-1">
          <mxGeometry y="104" width="230" height="26" as="geometry" />
        </mxCell>
        <mxCell id="zfkykt9MSWh2Pb5mOjTY-29" value="is_competitor : boolean" style="text;strokeColor=none;fillColor=none;align=left;verticalAlign=top;spacingLeft=4;spacingRight=4;overflow=hidden;rotatable=0;points=[[0,0.5],[1,0.5]];portConstraint=eastwest;whiteSpace=wrap;html=1;" vertex="1" parent="zfkykt9MSWh2Pb5mOjTY-1">
          <mxGeometry y="130" width="230" height="26" as="geometry" />
        </mxCell>
        <mxCell id="zfkykt9MSWh2Pb5mOjTY-31" value="is_captain: boolean" style="text;strokeColor=none;fillColor=none;align=left;verticalAlign=top;spacingLeft=4;spacingRight=4;overflow=hidden;rotatable=0;points=[[0,0.5],[1,0.5]];portConstraint=eastwest;whiteSpace=wrap;html=1;" vertex="1" parent="zfkykt9MSWh2Pb5mOjTY-1">
          <mxGeometry y="156" width="230" height="26" as="geometry" />
        </mxCell>
        <mxCell id="zfkykt9MSWh2Pb5mOjTY-32" value="is_admin: boolean" style="text;strokeColor=none;fillColor=none;align=left;verticalAlign=top;spacingLeft=4;spacingRight=4;overflow=hidden;rotatable=0;points=[[0,0.5],[1,0.5]];portConstraint=eastwest;whiteSpace=wrap;html=1;" vertex="1" parent="zfkykt9MSWh2Pb5mOjTY-1">
          <mxGeometry y="182" width="230" height="26" as="geometry" />
        </mxCell>
        <mxCell id="zfkykt9MSWh2Pb5mOjTY-30" value="is_comitte_member: boolean" style="text;strokeColor=none;fillColor=none;align=left;verticalAlign=top;spacingLeft=4;spacingRight=4;overflow=hidden;rotatable=0;points=[[0,0.5],[1,0.5]];portConstraint=eastwest;whiteSpace=wrap;html=1;" vertex="1" parent="zfkykt9MSWh2Pb5mOjTY-1">
          <mxGeometry y="208" width="230" height="26" as="geometry" />
        </mxCell>
        <mxCell id="zfkykt9MSWh2Pb5mOjTY-183" style="edgeStyle=orthogonalEdgeStyle;rounded=0;orthogonalLoop=1;jettySize=auto;html=1;" edge="1" parent="1" source="zfkykt9MSWh2Pb5mOjTY-9" target="zfkykt9MSWh2Pb5mOjTY-180">
          <mxGeometry relative="1" as="geometry">
            <Array as="points">
              <mxPoint x="565" y="250" />
              <mxPoint x="-400" y="250" />
            </Array>
          </mxGeometry>
        </mxCell>
        <mxCell id="zfkykt9MSWh2Pb5mOjTY-184" value="1, 1" style="edgeLabel;html=1;align=center;verticalAlign=middle;resizable=0;points=[];" vertex="1" connectable="0" parent="zfkykt9MSWh2Pb5mOjTY-183">
          <mxGeometry x="-0.7235" relative="1" as="geometry">
            <mxPoint as="offset" />
          </mxGeometry>
        </mxCell>
        <mxCell id="zfkykt9MSWh2Pb5mOjTY-9" value="Captain" style="swimlane;fontStyle=0;childLayout=stackLayout;horizontal=1;startSize=26;fillColor=none;horizontalStack=0;resizeParent=1;resizeParentMax=0;resizeLast=0;collapsible=1;marginBottom=0;whiteSpace=wrap;html=1;" vertex="1" parent="1">
          <mxGeometry x="495" y="270" width="140" height="104" as="geometry" />
        </mxCell>
        <mxCell id="zfkykt9MSWh2Pb5mOjTY-10" value="id: int" style="text;strokeColor=none;fillColor=none;align=left;verticalAlign=top;spacingLeft=4;spacingRight=4;overflow=hidden;rotatable=0;points=[[0,0.5],[1,0.5]];portConstraint=eastwest;whiteSpace=wrap;html=1;" vertex="1" parent="zfkykt9MSWh2Pb5mOjTY-9">
          <mxGeometry y="26" width="140" height="26" as="geometry" />
        </mxCell>
        <mxCell id="zfkykt9MSWh2Pb5mOjTY-11" value="date_time: datetime" style="text;strokeColor=none;fillColor=none;align=left;verticalAlign=top;spacingLeft=4;spacingRight=4;overflow=hidden;rotatable=0;points=[[0,0.5],[1,0.5]];portConstraint=eastwest;whiteSpace=wrap;html=1;" vertex="1" parent="zfkykt9MSWh2Pb5mOjTY-9">
          <mxGeometry y="52" width="140" height="26" as="geometry" />
        </mxCell>
        <mxCell id="zfkykt9MSWh2Pb5mOjTY-12" value="is_active: bool" style="text;strokeColor=none;fillColor=none;align=left;verticalAlign=top;spacingLeft=4;spacingRight=4;overflow=hidden;rotatable=0;points=[[0,0.5],[1,0.5]];portConstraint=eastwest;whiteSpace=wrap;html=1;" vertex="1" parent="zfkykt9MSWh2Pb5mOjTY-9">
          <mxGeometry y="78" width="140" height="26" as="geometry" />
        </mxCell>
        <mxCell id="zfkykt9MSWh2Pb5mOjTY-207" style="edgeStyle=orthogonalEdgeStyle;rounded=0;orthogonalLoop=1;jettySize=auto;html=1;entryX=0;entryY=0.5;entryDx=0;entryDy=0;" edge="1" parent="1" source="zfkykt9MSWh2Pb5mOjTY-13" target="zfkykt9MSWh2Pb5mOjTY-50">
          <mxGeometry relative="1" as="geometry" />
        </mxCell>
        <mxCell id="zfkykt9MSWh2Pb5mOjTY-208" value="0, 2" style="edgeLabel;html=1;align=center;verticalAlign=middle;resizable=0;points=[];" vertex="1" connectable="0" parent="zfkykt9MSWh2Pb5mOjTY-207">
          <mxGeometry x="-0.8115" y="-2" relative="1" as="geometry">
            <mxPoint as="offset" />
          </mxGeometry>
        </mxCell>
        <mxCell id="zfkykt9MSWh2Pb5mOjTY-217" style="edgeStyle=orthogonalEdgeStyle;rounded=0;orthogonalLoop=1;jettySize=auto;html=1;" edge="1" parent="1" source="zfkykt9MSWh2Pb5mOjTY-13" target="zfkykt9MSWh2Pb5mOjTY-215">
          <mxGeometry relative="1" as="geometry" />
        </mxCell>
        <mxCell id="zfkykt9MSWh2Pb5mOjTY-218" value="1, 1" style="edgeLabel;html=1;align=center;verticalAlign=middle;resizable=0;points=[];" vertex="1" connectable="0" parent="zfkykt9MSWh2Pb5mOjTY-217">
          <mxGeometry x="-0.8409" y="5" relative="1" as="geometry">
            <mxPoint as="offset" />
          </mxGeometry>
        </mxCell>
        <mxCell id="zfkykt9MSWh2Pb5mOjTY-13" value="Interclub" style="swimlane;fontStyle=0;childLayout=stackLayout;horizontal=1;startSize=26;fillColor=none;horizontalStack=0;resizeParent=1;resizeParentMax=0;resizeLast=0;collapsible=1;marginBottom=0;whiteSpace=wrap;html=1;" vertex="1" parent="1">
          <mxGeometry x="450" y="450" width="230" height="108" as="geometry" />
        </mxCell>
        <mxCell id="zfkykt9MSWh2Pb5mOjTY-14" value="id" style="text;strokeColor=none;fillColor=none;align=left;verticalAlign=top;spacingLeft=4;spacingRight=4;overflow=hidden;rotatable=0;points=[[0,0.5],[1,0.5]];portConstraint=eastwest;whiteSpace=wrap;html=1;" vertex="1" parent="zfkykt9MSWh2Pb5mOjTY-13">
          <mxGeometry y="26" width="230" height="26" as="geometry" />
        </mxCell>
        <mxCell id="zfkykt9MSWh2Pb5mOjTY-43" value="score: varchar" style="text;strokeColor=none;fillColor=none;align=left;verticalAlign=top;spacingLeft=4;spacingRight=4;overflow=hidden;rotatable=0;points=[[0,0.5],[1,0.5]];portConstraint=eastwest;whiteSpace=wrap;html=1;" vertex="1" parent="zfkykt9MSWh2Pb5mOjTY-13">
          <mxGeometry y="52" width="230" height="26" as="geometry" />
        </mxCell>
        <mxCell id="zfkykt9MSWh2Pb5mOjTY-44" value="result (enum won-lost-draw-withdrawal" style="text;strokeColor=none;fillColor=none;align=left;verticalAlign=top;spacingLeft=4;spacingRight=4;overflow=hidden;rotatable=0;points=[[0,0.5],[1,0.5]];portConstraint=eastwest;whiteSpace=wrap;html=1;" vertex="1" parent="zfkykt9MSWh2Pb5mOjTY-13">
          <mxGeometry y="78" width="230" height="30" as="geometry" />
        </mxCell>
        <mxCell id="zfkykt9MSWh2Pb5mOjTY-132" style="edgeStyle=orthogonalEdgeStyle;rounded=0;orthogonalLoop=1;jettySize=auto;html=1;entryX=0;entryY=0.5;entryDx=0;entryDy=0;" edge="1" parent="1" source="zfkykt9MSWh2Pb5mOjTY-37" target="zfkykt9MSWh2Pb5mOjTY-129">
          <mxGeometry relative="1" as="geometry" />
        </mxCell>
        <mxCell id="zfkykt9MSWh2Pb5mOjTY-135" value="1, 1" style="edgeLabel;html=1;align=center;verticalAlign=middle;resizable=0;points=[];" vertex="1" connectable="0" parent="zfkykt9MSWh2Pb5mOjTY-132">
          <mxGeometry x="-0.8168" relative="1" as="geometry">
            <mxPoint as="offset" />
          </mxGeometry>
        </mxCell>
        <mxCell id="zfkykt9MSWh2Pb5mOjTY-147" style="edgeStyle=orthogonalEdgeStyle;rounded=0;orthogonalLoop=1;jettySize=auto;html=1;exitX=0.75;exitY=0;exitDx=0;exitDy=0;entryX=0.5;entryY=1;entryDx=0;entryDy=0;" edge="1" parent="1" source="zfkykt9MSWh2Pb5mOjTY-37" target="zfkykt9MSWh2Pb5mOjTY-145">
          <mxGeometry relative="1" as="geometry" />
        </mxCell>
        <mxCell id="zfkykt9MSWh2Pb5mOjTY-148" value="1, 1" style="edgeLabel;html=1;align=center;verticalAlign=middle;resizable=0;points=[];" vertex="1" connectable="0" parent="zfkykt9MSWh2Pb5mOjTY-147">
          <mxGeometry x="-0.8564" y="-2" relative="1" as="geometry">
            <mxPoint x="1" y="-1" as="offset" />
          </mxGeometry>
        </mxCell>
        <mxCell id="zfkykt9MSWh2Pb5mOjTY-154" style="edgeStyle=orthogonalEdgeStyle;rounded=0;orthogonalLoop=1;jettySize=auto;html=1;entryX=1;entryY=0.5;entryDx=0;entryDy=0;" edge="1" parent="1" source="zfkykt9MSWh2Pb5mOjTY-37" target="zfkykt9MSWh2Pb5mOjTY-74">
          <mxGeometry relative="1" as="geometry">
            <Array as="points">
              <mxPoint x="1170" y="980" />
            </Array>
          </mxGeometry>
        </mxCell>
        <mxCell id="zfkykt9MSWh2Pb5mOjTY-155" value="4, n" style="edgeLabel;html=1;align=center;verticalAlign=middle;resizable=0;points=[];" vertex="1" connectable="0" parent="zfkykt9MSWh2Pb5mOjTY-154">
          <mxGeometry x="-0.8751" y="-5" relative="1" as="geometry">
            <mxPoint as="offset" />
          </mxGeometry>
        </mxCell>
        <mxCell id="zfkykt9MSWh2Pb5mOjTY-37" value="Team" style="swimlane;fontStyle=0;childLayout=stackLayout;horizontal=1;startSize=26;fillColor=none;horizontalStack=0;resizeParent=1;resizeParentMax=0;resizeLast=0;collapsible=1;marginBottom=0;whiteSpace=wrap;html=1;" vertex="1" parent="1">
          <mxGeometry x="1095" y="427" width="140" height="78" as="geometry" />
        </mxCell>
        <mxCell id="zfkykt9MSWh2Pb5mOjTY-38" value="id: int" style="text;strokeColor=none;fillColor=none;align=left;verticalAlign=top;spacingLeft=4;spacingRight=4;overflow=hidden;rotatable=0;points=[[0,0.5],[1,0.5]];portConstraint=eastwest;whiteSpace=wrap;html=1;" vertex="1" parent="zfkykt9MSWh2Pb5mOjTY-37">
          <mxGeometry y="26" width="140" height="26" as="geometry" />
        </mxCell>
        <mxCell id="zfkykt9MSWh2Pb5mOjTY-40" value="letter: varchar" style="text;strokeColor=none;fillColor=none;align=left;verticalAlign=top;spacingLeft=4;spacingRight=4;overflow=hidden;rotatable=0;points=[[0,0.5],[1,0.5]];portConstraint=eastwest;whiteSpace=wrap;html=1;" vertex="1" parent="zfkykt9MSWh2Pb5mOjTY-37">
          <mxGeometry y="52" width="140" height="26" as="geometry" />
        </mxCell>
        <mxCell id="zfkykt9MSWh2Pb5mOjTY-50" value="has&lt;div&gt;&lt;br&gt;&lt;/div&gt;&lt;div&gt;&lt;br&gt;&lt;/div&gt;" style="shape=lineEllipse;perimeter=ellipsePerimeter;whiteSpace=wrap;html=1;backgroundOutline=1;" vertex="1" parent="1">
          <mxGeometry x="860" y="426" width="80" height="80" as="geometry" />
        </mxCell>
        <mxCell id="zfkykt9MSWh2Pb5mOjTY-68" value="Select&lt;div&gt;&lt;br&gt;&lt;/div&gt;&lt;div&gt;&lt;br&gt;&lt;/div&gt;" style="shape=lineEllipse;perimeter=ellipsePerimeter;whiteSpace=wrap;html=1;backgroundOutline=1;" vertex="1" parent="1">
          <mxGeometry x="60" y="269" width="80" height="80" as="geometry" />
        </mxCell>
        <mxCell id="zfkykt9MSWh2Pb5mOjTY-70" value="&lt;div&gt;Subscribe&lt;/div&gt;&lt;div&gt;&lt;br&gt;&lt;/div&gt;&lt;div&gt;&lt;br&gt;&lt;/div&gt;" style="shape=lineEllipse;perimeter=ellipsePerimeter;whiteSpace=wrap;html=1;backgroundOutline=1;" vertex="1" parent="1">
          <mxGeometry x="210" y="490" width="80" height="80" as="geometry" />
        </mxCell>
        <mxCell id="zfkykt9MSWh2Pb5mOjTY-71" value="&lt;div&gt;Has played&lt;/div&gt;&lt;div&gt;&lt;br&gt;&lt;/div&gt;&lt;div&gt;&lt;br&gt;&lt;/div&gt;" style="shape=lineEllipse;perimeter=ellipsePerimeter;whiteSpace=wrap;html=1;backgroundOutline=1;" vertex="1" parent="1">
          <mxGeometry x="210" y="390" width="80" height="80" as="geometry" />
        </mxCell>
        <mxCell id="zfkykt9MSWh2Pb5mOjTY-74" value="is part of&lt;div&gt;&lt;br&gt;&lt;/div&gt;&lt;div&gt;&lt;br&gt;&lt;/div&gt;" style="shape=lineEllipse;perimeter=ellipsePerimeter;whiteSpace=wrap;html=1;backgroundOutline=1;" vertex="1" parent="1">
          <mxGeometry x="460" y="940" width="80" height="80" as="geometry" />
        </mxCell>
        <mxCell id="zfkykt9MSWh2Pb5mOjTY-75" style="edgeStyle=orthogonalEdgeStyle;rounded=0;orthogonalLoop=1;jettySize=auto;html=1;entryX=0;entryY=0.5;entryDx=0;entryDy=0;" edge="1" parent="1" source="zfkykt9MSWh2Pb5mOjTY-1" target="zfkykt9MSWh2Pb5mOjTY-74">
          <mxGeometry relative="1" as="geometry">
            <Array as="points">
              <mxPoint x="185" y="810" />
              <mxPoint x="185" y="980" />
            </Array>
          </mxGeometry>
        </mxCell>
        <mxCell id="zfkykt9MSWh2Pb5mOjTY-77" value="0, 1" style="edgeLabel;html=1;align=center;verticalAlign=middle;resizable=0;points=[];" vertex="1" connectable="0" parent="zfkykt9MSWh2Pb5mOjTY-75">
          <mxGeometry x="-0.8043" y="-3" relative="1" as="geometry">
            <mxPoint as="offset" />
          </mxGeometry>
        </mxCell>
        <mxCell id="zfkykt9MSWh2Pb5mOjTY-79" value="has&lt;div&gt;&lt;br&gt;&lt;/div&gt;&lt;div&gt;&lt;br&gt;&lt;/div&gt;" style="shape=lineEllipse;perimeter=ellipsePerimeter;whiteSpace=wrap;html=1;backgroundOutline=1;" vertex="1" parent="1">
          <mxGeometry x="870" y="269" width="80" height="80" as="geometry" />
        </mxCell>
        <mxCell id="zfkykt9MSWh2Pb5mOjTY-80" style="edgeStyle=orthogonalEdgeStyle;rounded=0;orthogonalLoop=1;jettySize=auto;html=1;entryX=1;entryY=0.5;entryDx=0;entryDy=0;" edge="1" parent="1" source="zfkykt9MSWh2Pb5mOjTY-37" target="zfkykt9MSWh2Pb5mOjTY-79">
          <mxGeometry relative="1" as="geometry">
            <Array as="points">
              <mxPoint x="1184" y="309" />
            </Array>
          </mxGeometry>
        </mxCell>
        <mxCell id="zfkykt9MSWh2Pb5mOjTY-81" value="1,1" style="edgeLabel;html=1;align=center;verticalAlign=middle;resizable=0;points=[];" vertex="1" connectable="0" parent="zfkykt9MSWh2Pb5mOjTY-80">
          <mxGeometry x="-0.8846" y="-2" relative="1" as="geometry">
            <mxPoint as="offset" />
          </mxGeometry>
        </mxCell>
        <mxCell id="zfkykt9MSWh2Pb5mOjTY-82" style="edgeStyle=orthogonalEdgeStyle;rounded=0;orthogonalLoop=1;jettySize=auto;html=1;exitX=1;exitY=0.5;exitDx=0;exitDy=0;entryX=0;entryY=0.5;entryDx=0;entryDy=0;" edge="1" parent="1" source="zfkykt9MSWh2Pb5mOjTY-10" target="zfkykt9MSWh2Pb5mOjTY-79">
          <mxGeometry relative="1" as="geometry" />
        </mxCell>
        <mxCell id="zfkykt9MSWh2Pb5mOjTY-83" value="1,1" style="edgeLabel;html=1;align=center;verticalAlign=middle;resizable=0;points=[];" vertex="1" connectable="0" parent="zfkykt9MSWh2Pb5mOjTY-82">
          <mxGeometry x="-0.8692" y="1" relative="1" as="geometry">
            <mxPoint as="offset" />
          </mxGeometry>
        </mxCell>
        <mxCell id="zfkykt9MSWh2Pb5mOjTY-86" style="edgeStyle=orthogonalEdgeStyle;rounded=0;orthogonalLoop=1;jettySize=auto;html=1;entryX=0;entryY=0.5;entryDx=0;entryDy=0;" edge="1" parent="1" source="zfkykt9MSWh2Pb5mOjTY-1" target="zfkykt9MSWh2Pb5mOjTY-70">
          <mxGeometry relative="1" as="geometry">
            <Array as="points">
              <mxPoint x="130" y="760" />
              <mxPoint x="130" y="530" />
            </Array>
          </mxGeometry>
        </mxCell>
        <mxCell id="zfkykt9MSWh2Pb5mOjTY-87" value="0, n" style="edgeLabel;html=1;align=center;verticalAlign=middle;resizable=0;points=[];" vertex="1" connectable="0" parent="zfkykt9MSWh2Pb5mOjTY-86">
          <mxGeometry x="-0.7367" y="4" relative="1" as="geometry">
            <mxPoint x="-6" as="offset" />
          </mxGeometry>
        </mxCell>
        <mxCell id="zfkykt9MSWh2Pb5mOjTY-91" style="edgeStyle=orthogonalEdgeStyle;rounded=0;orthogonalLoop=1;jettySize=auto;html=1;exitX=0;exitY=0.5;exitDx=0;exitDy=0;entryX=1;entryY=0.5;entryDx=0;entryDy=0;" edge="1" parent="1" source="zfkykt9MSWh2Pb5mOjTY-14" target="zfkykt9MSWh2Pb5mOjTY-70">
          <mxGeometry relative="1" as="geometry">
            <Array as="points">
              <mxPoint x="450" y="530" />
            </Array>
          </mxGeometry>
        </mxCell>
        <mxCell id="zfkykt9MSWh2Pb5mOjTY-196" value="0, n" style="edgeLabel;html=1;align=center;verticalAlign=middle;resizable=0;points=[];" vertex="1" connectable="0" parent="zfkykt9MSWh2Pb5mOjTY-91">
          <mxGeometry x="-0.2653" y="-1" relative="1" as="geometry">
            <mxPoint as="offset" />
          </mxGeometry>
        </mxCell>
        <mxCell id="zfkykt9MSWh2Pb5mOjTY-93" style="edgeStyle=orthogonalEdgeStyle;rounded=0;orthogonalLoop=1;jettySize=auto;html=1;entryX=0;entryY=0.5;entryDx=0;entryDy=0;" edge="1" parent="1" source="zfkykt9MSWh2Pb5mOjTY-1" target="zfkykt9MSWh2Pb5mOjTY-71">
          <mxGeometry relative="1" as="geometry">
            <Array as="points">
              <mxPoint x="60" y="739" />
              <mxPoint x="60" y="430" />
            </Array>
          </mxGeometry>
        </mxCell>
        <mxCell id="zfkykt9MSWh2Pb5mOjTY-157" value="0, n" style="edgeLabel;html=1;align=center;verticalAlign=middle;resizable=0;points=[];" vertex="1" connectable="0" parent="zfkykt9MSWh2Pb5mOjTY-93">
          <mxGeometry x="-0.799" relative="1" as="geometry">
            <mxPoint as="offset" />
          </mxGeometry>
        </mxCell>
        <mxCell id="zfkykt9MSWh2Pb5mOjTY-94" style="edgeStyle=orthogonalEdgeStyle;rounded=0;orthogonalLoop=1;jettySize=auto;html=1;exitX=0;exitY=0.5;exitDx=0;exitDy=0;entryX=1;entryY=0.5;entryDx=0;entryDy=0;" edge="1" parent="1" source="zfkykt9MSWh2Pb5mOjTY-14" target="zfkykt9MSWh2Pb5mOjTY-71">
          <mxGeometry relative="1" as="geometry">
            <Array as="points">
              <mxPoint x="450" y="490" />
              <mxPoint x="370" y="490" />
              <mxPoint x="370" y="430" />
            </Array>
          </mxGeometry>
        </mxCell>
        <mxCell id="zfkykt9MSWh2Pb5mOjTY-95" value="0, n" style="edgeLabel;html=1;align=center;verticalAlign=middle;resizable=0;points=[];" vertex="1" connectable="0" parent="zfkykt9MSWh2Pb5mOjTY-94">
          <mxGeometry x="-0.7946" y="1" relative="1" as="geometry">
            <mxPoint as="offset" />
          </mxGeometry>
        </mxCell>
        <mxCell id="zfkykt9MSWh2Pb5mOjTY-96" style="edgeStyle=orthogonalEdgeStyle;rounded=0;orthogonalLoop=1;jettySize=auto;html=1;exitX=0;exitY=0.5;exitDx=0;exitDy=0;entryX=1;entryY=0.5;entryDx=0;entryDy=0;" edge="1" parent="1" source="zfkykt9MSWh2Pb5mOjTY-10" target="zfkykt9MSWh2Pb5mOjTY-68">
          <mxGeometry relative="1" as="geometry" />
        </mxCell>
        <mxCell id="zfkykt9MSWh2Pb5mOjTY-97" value="0, n" style="edgeLabel;html=1;align=center;verticalAlign=middle;resizable=0;points=[];" vertex="1" connectable="0" parent="zfkykt9MSWh2Pb5mOjTY-96">
          <mxGeometry x="-0.8889" y="3" relative="1" as="geometry">
            <mxPoint as="offset" />
          </mxGeometry>
        </mxCell>
        <mxCell id="zfkykt9MSWh2Pb5mOjTY-98" style="edgeStyle=orthogonalEdgeStyle;rounded=0;orthogonalLoop=1;jettySize=auto;html=1;entryX=0;entryY=0.5;entryDx=0;entryDy=0;" edge="1" parent="1" source="zfkykt9MSWh2Pb5mOjTY-1" target="zfkykt9MSWh2Pb5mOjTY-68">
          <mxGeometry relative="1" as="geometry">
            <Array as="points">
              <mxPoint x="-90" y="730" />
              <mxPoint x="-15" y="730" />
              <mxPoint x="-15" y="230" />
            </Array>
          </mxGeometry>
        </mxCell>
        <mxCell id="zfkykt9MSWh2Pb5mOjTY-99" value="0, n" style="edgeLabel;html=1;align=center;verticalAlign=middle;resizable=0;points=[];" vertex="1" connectable="0" parent="zfkykt9MSWh2Pb5mOjTY-98">
          <mxGeometry x="-0.65" relative="1" as="geometry">
            <mxPoint as="offset" />
          </mxGeometry>
        </mxCell>
        <mxCell id="zfkykt9MSWh2Pb5mOjTY-101" value="Player_competition" style="swimlane;fontStyle=0;childLayout=stackLayout;horizontal=1;startSize=26;fillColor=none;horizontalStack=0;resizeParent=1;resizeParentMax=0;resizeLast=0;collapsible=1;marginBottom=0;whiteSpace=wrap;html=1;" vertex="1" parent="1">
          <mxGeometry x="180" y="1860" width="140" height="156" as="geometry" />
        </mxCell>
        <mxCell id="zfkykt9MSWh2Pb5mOjTY-102" value="fk interclub_id: int" style="text;strokeColor=#82b366;fillColor=#d5e8d4;align=left;verticalAlign=top;spacingLeft=4;spacingRight=4;overflow=hidden;rotatable=0;points=[[0,0.5],[1,0.5]];portConstraint=eastwest;whiteSpace=wrap;html=1;" vertex="1" parent="zfkykt9MSWh2Pb5mOjTY-101">
          <mxGeometry y="26" width="140" height="26" as="geometry" />
        </mxCell>
        <mxCell id="zfkykt9MSWh2Pb5mOjTY-103" value="fk player_id: int" style="text;strokeColor=#6D1F00;fillColor=#a0522d;align=left;verticalAlign=top;spacingLeft=4;spacingRight=4;overflow=hidden;rotatable=0;points=[[0,0.5],[1,0.5]];portConstraint=eastwest;whiteSpace=wrap;html=1;fontColor=#ffffff;" vertex="1" parent="zfkykt9MSWh2Pb5mOjTY-101">
          <mxGeometry y="52" width="140" height="26" as="geometry" />
        </mxCell>
        <mxCell id="zfkykt9MSWh2Pb5mOjTY-104" value="is_subscribed: bool" style="text;strokeColor=none;fillColor=none;align=left;verticalAlign=top;spacingLeft=4;spacingRight=4;overflow=hidden;rotatable=0;points=[[0,0.5],[1,0.5]];portConstraint=eastwest;whiteSpace=wrap;html=1;" vertex="1" parent="zfkykt9MSWh2Pb5mOjTY-101">
          <mxGeometry y="78" width="140" height="26" as="geometry" />
        </mxCell>
        <mxCell id="zfkykt9MSWh2Pb5mOjTY-105" value="is_selected: bool" style="text;strokeColor=none;fillColor=none;align=left;verticalAlign=top;spacingLeft=4;spacingRight=4;overflow=hidden;rotatable=0;points=[[0,0.5],[1,0.5]];portConstraint=eastwest;whiteSpace=wrap;html=1;" vertex="1" parent="zfkykt9MSWh2Pb5mOjTY-101">
          <mxGeometry y="104" width="140" height="26" as="geometry" />
        </mxCell>
        <mxCell id="zfkykt9MSWh2Pb5mOjTY-106" value="has_played: bool" style="text;strokeColor=none;fillColor=none;align=left;verticalAlign=top;spacingLeft=4;spacingRight=4;overflow=hidden;rotatable=0;points=[[0,0.5],[1,0.5]];portConstraint=eastwest;whiteSpace=wrap;html=1;" vertex="1" parent="zfkykt9MSWh2Pb5mOjTY-101">
          <mxGeometry y="130" width="140" height="26" as="geometry" />
        </mxCell>
        <mxCell id="zfkykt9MSWh2Pb5mOjTY-109" value="&lt;b style=&quot;font-size: 72px;&quot;&gt;MCD&lt;/b&gt;" style="rounded=1;whiteSpace=wrap;html=1;fontSize=72;fillColor=#fff2cc;strokeColor=#d6b656;" vertex="1" parent="1">
          <mxGeometry x="-630" y="-290" width="690" height="160" as="geometry" />
        </mxCell>
        <mxCell id="zfkykt9MSWh2Pb5mOjTY-111" value="Season" style="swimlane;fontStyle=0;childLayout=stackLayout;horizontal=1;startSize=26;fillColor=none;horizontalStack=0;resizeParent=1;resizeParentMax=0;resizeLast=0;collapsible=1;marginBottom=0;whiteSpace=wrap;html=1;" vertex="1" parent="1">
          <mxGeometry x="870" y="760" width="140" height="104" as="geometry" />
        </mxCell>
        <mxCell id="zfkykt9MSWh2Pb5mOjTY-112" value="id: int" style="text;strokeColor=none;fillColor=none;align=left;verticalAlign=top;spacingLeft=4;spacingRight=4;overflow=hidden;rotatable=0;points=[[0,0.5],[1,0.5]];portConstraint=eastwest;whiteSpace=wrap;html=1;" vertex="1" parent="zfkykt9MSWh2Pb5mOjTY-111">
          <mxGeometry y="26" width="140" height="26" as="geometry" />
        </mxCell>
        <mxCell id="zfkykt9MSWh2Pb5mOjTY-113" value="start_year: int (4)" style="text;strokeColor=none;fillColor=none;align=left;verticalAlign=top;spacingLeft=4;spacingRight=4;overflow=hidden;rotatable=0;points=[[0,0.5],[1,0.5]];portConstraint=eastwest;whiteSpace=wrap;html=1;" vertex="1" parent="zfkykt9MSWh2Pb5mOjTY-111">
          <mxGeometry y="52" width="140" height="26" as="geometry" />
        </mxCell>
        <mxCell id="zfkykt9MSWh2Pb5mOjTY-114" value="end_year: int (4)" style="text;strokeColor=none;fillColor=none;align=left;verticalAlign=top;spacingLeft=4;spacingRight=4;overflow=hidden;rotatable=0;points=[[0,0.5],[1,0.5]];portConstraint=eastwest;whiteSpace=wrap;html=1;" vertex="1" parent="zfkykt9MSWh2Pb5mOjTY-111">
          <mxGeometry y="78" width="140" height="26" as="geometry" />
        </mxCell>
        <mxCell id="zfkykt9MSWh2Pb5mOjTY-117" style="edgeStyle=orthogonalEdgeStyle;rounded=0;orthogonalLoop=1;jettySize=auto;html=1;entryX=0.5;entryY=0;entryDx=0;entryDy=0;" edge="1" parent="1" source="zfkykt9MSWh2Pb5mOjTY-37" target="zfkykt9MSWh2Pb5mOjTY-120">
          <mxGeometry relative="1" as="geometry">
            <mxPoint x="1100" y="505" as="sourcePoint" />
            <Array as="points">
              <mxPoint x="1080" y="505" />
              <mxPoint x="1080" y="506" />
              <mxPoint x="1050" y="506" />
            </Array>
          </mxGeometry>
        </mxCell>
        <mxCell id="zfkykt9MSWh2Pb5mOjTY-121" value="1, 1" style="edgeLabel;html=1;align=center;verticalAlign=middle;resizable=0;points=[];" vertex="1" connectable="0" parent="zfkykt9MSWh2Pb5mOjTY-117">
          <mxGeometry x="-0.7459" y="2" relative="1" as="geometry">
            <mxPoint as="offset" />
          </mxGeometry>
        </mxCell>
        <mxCell id="zfkykt9MSWh2Pb5mOjTY-120" value="has&lt;div&gt;&lt;br&gt;&lt;/div&gt;&lt;div&gt;&lt;br&gt;&lt;/div&gt;" style="shape=lineEllipse;perimeter=ellipsePerimeter;whiteSpace=wrap;html=1;backgroundOutline=1;" vertex="1" parent="1">
          <mxGeometry x="1010" y="620" width="80" height="80" as="geometry" />
        </mxCell>
        <mxCell id="zfkykt9MSWh2Pb5mOjTY-123" style="edgeStyle=orthogonalEdgeStyle;rounded=0;orthogonalLoop=1;jettySize=auto;html=1;exitX=1;exitY=0.5;exitDx=0;exitDy=0;entryX=0.5;entryY=1;entryDx=0;entryDy=0;" edge="1" parent="1" source="zfkykt9MSWh2Pb5mOjTY-112" target="zfkykt9MSWh2Pb5mOjTY-120">
          <mxGeometry relative="1" as="geometry" />
        </mxCell>
        <mxCell id="zfkykt9MSWh2Pb5mOjTY-124" value="0, n" style="edgeLabel;html=1;align=center;verticalAlign=middle;resizable=0;points=[];" vertex="1" connectable="0" parent="zfkykt9MSWh2Pb5mOjTY-123">
          <mxGeometry x="-0.7823" y="-2" relative="1" as="geometry">
            <mxPoint as="offset" />
          </mxGeometry>
        </mxCell>
        <mxCell id="zfkykt9MSWh2Pb5mOjTY-133" style="edgeStyle=orthogonalEdgeStyle;rounded=0;orthogonalLoop=1;jettySize=auto;html=1;entryX=1;entryY=0.5;entryDx=0;entryDy=0;" edge="1" parent="1" source="zfkykt9MSWh2Pb5mOjTY-125" target="zfkykt9MSWh2Pb5mOjTY-129">
          <mxGeometry relative="1" as="geometry" />
        </mxCell>
        <mxCell id="zfkykt9MSWh2Pb5mOjTY-134" value="2, n" style="edgeLabel;html=1;align=center;verticalAlign=middle;resizable=0;points=[];" vertex="1" connectable="0" parent="zfkykt9MSWh2Pb5mOjTY-133">
          <mxGeometry x="-0.7624" y="5" relative="1" as="geometry">
            <mxPoint as="offset" />
          </mxGeometry>
        </mxCell>
        <mxCell id="zfkykt9MSWh2Pb5mOjTY-125" value="League" style="swimlane;fontStyle=0;childLayout=stackLayout;horizontal=1;startSize=26;fillColor=none;horizontalStack=0;resizeParent=1;resizeParentMax=0;resizeLast=0;collapsible=1;marginBottom=0;whiteSpace=wrap;html=1;" vertex="1" parent="1">
          <mxGeometry x="1500" y="426" width="140" height="104" as="geometry" />
        </mxCell>
        <mxCell id="zfkykt9MSWh2Pb5mOjTY-126" value="id: int" style="text;strokeColor=none;fillColor=none;align=left;verticalAlign=top;spacingLeft=4;spacingRight=4;overflow=hidden;rotatable=0;points=[[0,0.5],[1,0.5]];portConstraint=eastwest;whiteSpace=wrap;html=1;" vertex="1" parent="zfkykt9MSWh2Pb5mOjTY-125">
          <mxGeometry y="26" width="140" height="26" as="geometry" />
        </mxCell>
        <mxCell id="zfkykt9MSWh2Pb5mOjTY-127" value="start_year: int (4)" style="text;strokeColor=none;fillColor=none;align=left;verticalAlign=top;spacingLeft=4;spacingRight=4;overflow=hidden;rotatable=0;points=[[0,0.5],[1,0.5]];portConstraint=eastwest;whiteSpace=wrap;html=1;" vertex="1" parent="zfkykt9MSWh2Pb5mOjTY-125">
          <mxGeometry y="52" width="140" height="26" as="geometry" />
        </mxCell>
        <mxCell id="zfkykt9MSWh2Pb5mOjTY-128" value="end_year: int (4)" style="text;strokeColor=none;fillColor=none;align=left;verticalAlign=top;spacingLeft=4;spacingRight=4;overflow=hidden;rotatable=0;points=[[0,0.5],[1,0.5]];portConstraint=eastwest;whiteSpace=wrap;html=1;" vertex="1" parent="zfkykt9MSWh2Pb5mOjTY-125">
          <mxGeometry y="78" width="140" height="26" as="geometry" />
        </mxCell>
        <mxCell id="zfkykt9MSWh2Pb5mOjTY-129" value="has&lt;div&gt;&lt;br&gt;&lt;/div&gt;&lt;div&gt;&lt;br&gt;&lt;/div&gt;" style="shape=lineEllipse;perimeter=ellipsePerimeter;whiteSpace=wrap;html=1;backgroundOutline=1;" vertex="1" parent="1">
          <mxGeometry x="1294" y="438" width="80" height="80" as="geometry" />
        </mxCell>
        <mxCell id="zfkykt9MSWh2Pb5mOjTY-150" style="edgeStyle=orthogonalEdgeStyle;rounded=0;orthogonalLoop=1;jettySize=auto;html=1;entryX=1;entryY=0.5;entryDx=0;entryDy=0;" edge="1" parent="1" source="zfkykt9MSWh2Pb5mOjTY-136" target="zfkykt9MSWh2Pb5mOjTY-149">
          <mxGeometry relative="1" as="geometry" />
        </mxCell>
        <mxCell id="zfkykt9MSWh2Pb5mOjTY-153" value="1, n" style="edgeLabel;html=1;align=center;verticalAlign=middle;resizable=0;points=[];" vertex="1" connectable="0" parent="zfkykt9MSWh2Pb5mOjTY-150">
          <mxGeometry x="-0.8131" y="3" relative="1" as="geometry">
            <mxPoint as="offset" />
          </mxGeometry>
        </mxCell>
        <mxCell id="zfkykt9MSWh2Pb5mOjTY-136" value="Club" style="swimlane;fontStyle=0;childLayout=stackLayout;horizontal=1;startSize=26;fillColor=none;horizontalStack=0;resizeParent=1;resizeParentMax=0;resizeLast=0;collapsible=1;marginBottom=0;whiteSpace=wrap;html=1;" vertex="1" parent="1">
          <mxGeometry x="495" y="115" width="140" height="130" as="geometry" />
        </mxCell>
        <mxCell id="zfkykt9MSWh2Pb5mOjTY-137" value="id: int" style="text;strokeColor=none;fillColor=none;align=left;verticalAlign=top;spacingLeft=4;spacingRight=4;overflow=hidden;rotatable=0;points=[[0,0.5],[1,0.5]];portConstraint=eastwest;whiteSpace=wrap;html=1;" vertex="1" parent="zfkykt9MSWh2Pb5mOjTY-136">
          <mxGeometry y="26" width="140" height="26" as="geometry" />
        </mxCell>
        <mxCell id="zfkykt9MSWh2Pb5mOjTY-138" value="name: varchar" style="text;strokeColor=none;fillColor=none;align=left;verticalAlign=top;spacingLeft=4;spacingRight=4;overflow=hidden;rotatable=0;points=[[0,0.5],[1,0.5]];portConstraint=eastwest;whiteSpace=wrap;html=1;" vertex="1" parent="zfkykt9MSWh2Pb5mOjTY-136">
          <mxGeometry y="52" width="140" height="26" as="geometry" />
        </mxCell>
        <mxCell id="zfkykt9MSWh2Pb5mOjTY-140" value="licence: varchar" style="text;strokeColor=none;fillColor=none;align=left;verticalAlign=top;spacingLeft=4;spacingRight=4;overflow=hidden;rotatable=0;points=[[0,0.5],[1,0.5]];portConstraint=eastwest;whiteSpace=wrap;html=1;" vertex="1" parent="zfkykt9MSWh2Pb5mOjTY-136">
          <mxGeometry y="78" width="140" height="26" as="geometry" />
        </mxCell>
        <mxCell id="zfkykt9MSWh2Pb5mOjTY-139" value="address: varchar" style="text;strokeColor=none;fillColor=none;align=left;verticalAlign=top;spacingLeft=4;spacingRight=4;overflow=hidden;rotatable=0;points=[[0,0.5],[1,0.5]];portConstraint=eastwest;whiteSpace=wrap;html=1;" vertex="1" parent="zfkykt9MSWh2Pb5mOjTY-136">
          <mxGeometry y="104" width="140" height="26" as="geometry" />
        </mxCell>
        <mxCell id="zfkykt9MSWh2Pb5mOjTY-143" style="edgeStyle=orthogonalEdgeStyle;rounded=0;orthogonalLoop=1;jettySize=auto;html=1;" edge="1" parent="1" source="zfkykt9MSWh2Pb5mOjTY-136" target="zfkykt9MSWh2Pb5mOjTY-145">
          <mxGeometry relative="1" as="geometry" />
        </mxCell>
        <mxCell id="zfkykt9MSWh2Pb5mOjTY-144" value="1, n" style="edgeLabel;html=1;align=center;verticalAlign=middle;resizable=0;points=[];" vertex="1" connectable="0" parent="zfkykt9MSWh2Pb5mOjTY-143">
          <mxGeometry x="-0.9421" relative="1" as="geometry">
            <mxPoint y="-1" as="offset" />
          </mxGeometry>
        </mxCell>
        <mxCell id="zfkykt9MSWh2Pb5mOjTY-145" value="has&lt;div&gt;&lt;br&gt;&lt;/div&gt;&lt;div&gt;&lt;br&gt;&lt;/div&gt;" style="shape=lineEllipse;perimeter=ellipsePerimeter;whiteSpace=wrap;html=1;backgroundOutline=1;" vertex="1" parent="1">
          <mxGeometry x="1161" y="140" width="80" height="80" as="geometry" />
        </mxCell>
        <mxCell id="zfkykt9MSWh2Pb5mOjTY-149" value="has&lt;div&gt;&lt;br&gt;&lt;/div&gt;&lt;div&gt;&lt;br&gt;&lt;/div&gt;" style="shape=lineEllipse;perimeter=ellipsePerimeter;whiteSpace=wrap;html=1;backgroundOutline=1;" vertex="1" parent="1">
          <mxGeometry x="-170" y="140" width="80" height="80" as="geometry" />
        </mxCell>
        <mxCell id="zfkykt9MSWh2Pb5mOjTY-181" style="edgeStyle=orthogonalEdgeStyle;rounded=0;orthogonalLoop=1;jettySize=auto;html=1;entryX=0.5;entryY=1;entryDx=0;entryDy=0;" edge="1" parent="1" source="zfkykt9MSWh2Pb5mOjTY-158" target="zfkykt9MSWh2Pb5mOjTY-180">
          <mxGeometry relative="1" as="geometry">
            <Array as="points" />
          </mxGeometry>
        </mxCell>
        <mxCell id="zfkykt9MSWh2Pb5mOjTY-182" value="0, 1" style="edgeLabel;html=1;align=center;verticalAlign=middle;resizable=0;points=[];" vertex="1" connectable="0" parent="zfkykt9MSWh2Pb5mOjTY-181">
          <mxGeometry x="-0.9004" y="-2" relative="1" as="geometry">
            <mxPoint as="offset" />
          </mxGeometry>
        </mxCell>
        <mxCell id="zfkykt9MSWh2Pb5mOjTY-352" style="edgeStyle=orthogonalEdgeStyle;rounded=0;orthogonalLoop=1;jettySize=auto;html=1;entryX=0.5;entryY=1;entryDx=0;entryDy=0;" edge="1" parent="1" source="zfkykt9MSWh2Pb5mOjTY-158" target="zfkykt9MSWh2Pb5mOjTY-351">
          <mxGeometry relative="1" as="geometry">
            <Array as="points">
              <mxPoint x="-800" y="570" />
              <mxPoint x="-800" y="570" />
            </Array>
          </mxGeometry>
        </mxCell>
        <mxCell id="zfkykt9MSWh2Pb5mOjTY-354" value="0, 1" style="edgeLabel;html=1;align=center;verticalAlign=middle;resizable=0;points=[];" vertex="1" connectable="0" parent="zfkykt9MSWh2Pb5mOjTY-352">
          <mxGeometry x="-0.9014" y="-2" relative="1" as="geometry">
            <mxPoint as="offset" />
          </mxGeometry>
        </mxCell>
        <mxCell id="zfkykt9MSWh2Pb5mOjTY-158" value="Member" style="swimlane;fontStyle=0;childLayout=stackLayout;horizontal=1;startSize=26;fillColor=none;horizontalStack=0;resizeParent=1;resizeParentMax=0;resizeLast=0;collapsible=1;marginBottom=0;whiteSpace=wrap;html=1;" vertex="1" parent="1">
          <mxGeometry x="-810" y="714" width="230" height="130" as="geometry" />
        </mxCell>
        <mxCell id="zfkykt9MSWh2Pb5mOjTY-159" value="id: int" style="text;strokeColor=none;fillColor=none;align=left;verticalAlign=top;spacingLeft=4;spacingRight=4;overflow=hidden;rotatable=0;points=[[0,0.5],[1,0.5]];portConstraint=eastwest;whiteSpace=wrap;html=1;" vertex="1" parent="zfkykt9MSWh2Pb5mOjTY-158">
          <mxGeometry y="26" width="230" height="26" as="geometry" />
        </mxCell>
        <mxCell id="zfkykt9MSWh2Pb5mOjTY-160" value="first_name: varchar" style="text;strokeColor=none;fillColor=none;align=left;verticalAlign=top;spacingLeft=4;spacingRight=4;overflow=hidden;rotatable=0;points=[[0,0.5],[1,0.5]];portConstraint=eastwest;whiteSpace=wrap;html=1;" vertex="1" parent="zfkykt9MSWh2Pb5mOjTY-158">
          <mxGeometry y="52" width="230" height="26" as="geometry" />
        </mxCell>
        <mxCell id="zfkykt9MSWh2Pb5mOjTY-161" value="last_name: varchar" style="text;strokeColor=none;fillColor=none;align=left;verticalAlign=top;spacingLeft=4;spacingRight=4;overflow=hidden;rotatable=0;points=[[0,0.5],[1,0.5]];portConstraint=eastwest;whiteSpace=wrap;html=1;" vertex="1" parent="zfkykt9MSWh2Pb5mOjTY-158">
          <mxGeometry y="78" width="230" height="26" as="geometry" />
        </mxCell>
        <mxCell id="zfkykt9MSWh2Pb5mOjTY-168" value="is_active: boolean" style="text;strokeColor=none;fillColor=none;align=left;verticalAlign=top;spacingLeft=4;spacingRight=4;overflow=hidden;rotatable=0;points=[[0,0.5],[1,0.5]];portConstraint=eastwest;whiteSpace=wrap;html=1;" vertex="1" parent="zfkykt9MSWh2Pb5mOjTY-158">
          <mxGeometry y="104" width="230" height="26" as="geometry" />
        </mxCell>
        <mxCell id="zfkykt9MSWh2Pb5mOjTY-172" value="Is&lt;div&gt;&lt;br&gt;&lt;/div&gt;&lt;div&gt;&lt;br&gt;&lt;/div&gt;" style="shape=lineEllipse;perimeter=ellipsePerimeter;whiteSpace=wrap;html=1;backgroundOutline=1;" vertex="1" parent="1">
          <mxGeometry x="-510" y="739" width="80" height="80" as="geometry" />
        </mxCell>
        <mxCell id="zfkykt9MSWh2Pb5mOjTY-174" style="edgeStyle=orthogonalEdgeStyle;rounded=0;orthogonalLoop=1;jettySize=auto;html=1;" edge="1" parent="1" source="zfkykt9MSWh2Pb5mOjTY-160" target="zfkykt9MSWh2Pb5mOjTY-172">
          <mxGeometry relative="1" as="geometry" />
        </mxCell>
        <mxCell id="zfkykt9MSWh2Pb5mOjTY-178" value="0, 1" style="edgeLabel;html=1;align=center;verticalAlign=middle;resizable=0;points=[];" vertex="1" connectable="0" parent="zfkykt9MSWh2Pb5mOjTY-174">
          <mxGeometry x="-0.531" y="2" relative="1" as="geometry">
            <mxPoint as="offset" />
          </mxGeometry>
        </mxCell>
        <mxCell id="zfkykt9MSWh2Pb5mOjTY-180" value="Is&lt;div&gt;&lt;br&gt;&lt;/div&gt;&lt;div&gt;&lt;br&gt;&lt;/div&gt;" style="shape=lineEllipse;perimeter=ellipsePerimeter;whiteSpace=wrap;html=1;backgroundOutline=1;" vertex="1" parent="1">
          <mxGeometry x="-735" y="210" width="80" height="80" as="geometry" />
        </mxCell>
        <mxCell id="zfkykt9MSWh2Pb5mOjTY-190" style="edgeStyle=orthogonalEdgeStyle;rounded=0;orthogonalLoop=1;jettySize=auto;html=1;entryX=0.5;entryY=0;entryDx=0;entryDy=0;" edge="1" parent="1" source="zfkykt9MSWh2Pb5mOjTY-185" target="zfkykt9MSWh2Pb5mOjTY-189">
          <mxGeometry relative="1" as="geometry" />
        </mxCell>
        <mxCell id="zfkykt9MSWh2Pb5mOjTY-195" value="0, n" style="edgeLabel;html=1;align=center;verticalAlign=middle;resizable=0;points=[];" vertex="1" connectable="0" parent="zfkykt9MSWh2Pb5mOjTY-190">
          <mxGeometry x="-0.896" y="-3" relative="1" as="geometry">
            <mxPoint as="offset" />
          </mxGeometry>
        </mxCell>
        <mxCell id="zfkykt9MSWh2Pb5mOjTY-353" style="edgeStyle=orthogonalEdgeStyle;rounded=0;orthogonalLoop=1;jettySize=auto;html=1;entryX=0.5;entryY=0;entryDx=0;entryDy=0;" edge="1" parent="1" source="zfkykt9MSWh2Pb5mOjTY-185" target="zfkykt9MSWh2Pb5mOjTY-351">
          <mxGeometry relative="1" as="geometry" />
        </mxCell>
        <mxCell id="zfkykt9MSWh2Pb5mOjTY-356" value="1, n" style="edgeLabel;html=1;align=center;verticalAlign=middle;resizable=0;points=[];" vertex="1" connectable="0" parent="zfkykt9MSWh2Pb5mOjTY-353">
          <mxGeometry x="-0.7733" y="1" relative="1" as="geometry">
            <mxPoint as="offset" />
          </mxGeometry>
        </mxCell>
        <mxCell id="zfkykt9MSWh2Pb5mOjTY-185" value="Comittee Member" style="swimlane;fontStyle=0;childLayout=stackLayout;horizontal=1;startSize=26;fillColor=none;horizontalStack=0;resizeParent=1;resizeParentMax=0;resizeLast=0;collapsible=1;marginBottom=0;whiteSpace=wrap;html=1;" vertex="1" parent="1">
          <mxGeometry x="-520" y="10" width="140" height="104" as="geometry" />
        </mxCell>
        <mxCell id="zfkykt9MSWh2Pb5mOjTY-186" value="id: int" style="text;strokeColor=none;fillColor=none;align=left;verticalAlign=top;spacingLeft=4;spacingRight=4;overflow=hidden;rotatable=0;points=[[0,0.5],[1,0.5]];portConstraint=eastwest;whiteSpace=wrap;html=1;" vertex="1" parent="zfkykt9MSWh2Pb5mOjTY-185">
          <mxGeometry y="26" width="140" height="26" as="geometry" />
        </mxCell>
        <mxCell id="zfkykt9MSWh2Pb5mOjTY-187" value="date_time: datetime" style="text;strokeColor=none;fillColor=none;align=left;verticalAlign=top;spacingLeft=4;spacingRight=4;overflow=hidden;rotatable=0;points=[[0,0.5],[1,0.5]];portConstraint=eastwest;whiteSpace=wrap;html=1;" vertex="1" parent="zfkykt9MSWh2Pb5mOjTY-185">
          <mxGeometry y="52" width="140" height="26" as="geometry" />
        </mxCell>
        <mxCell id="zfkykt9MSWh2Pb5mOjTY-188" value="is_active: boolean" style="text;strokeColor=none;fillColor=none;align=left;verticalAlign=top;spacingLeft=4;spacingRight=4;overflow=hidden;rotatable=0;points=[[0,0.5],[1,0.5]];portConstraint=eastwest;whiteSpace=wrap;html=1;" vertex="1" parent="zfkykt9MSWh2Pb5mOjTY-185">
          <mxGeometry y="78" width="140" height="26" as="geometry" />
        </mxCell>
        <mxCell id="zfkykt9MSWh2Pb5mOjTY-189" value="Select&lt;div&gt;&lt;br&gt;&lt;/div&gt;&lt;div&gt;&lt;br&gt;&lt;/div&gt;" style="shape=lineEllipse;perimeter=ellipsePerimeter;whiteSpace=wrap;html=1;backgroundOutline=1;" vertex="1" parent="1">
          <mxGeometry x="-390" y="360" width="80" height="80" as="geometry" />
        </mxCell>
        <mxCell id="zfkykt9MSWh2Pb5mOjTY-205" style="edgeStyle=orthogonalEdgeStyle;rounded=0;orthogonalLoop=1;jettySize=auto;html=1;exitX=0;exitY=0.5;exitDx=0;exitDy=0;entryX=1;entryY=0.5;entryDx=0;entryDy=0;" edge="1" parent="1" source="zfkykt9MSWh2Pb5mOjTY-38" target="zfkykt9MSWh2Pb5mOjTY-50">
          <mxGeometry relative="1" as="geometry" />
        </mxCell>
        <mxCell id="zfkykt9MSWh2Pb5mOjTY-206" value="0, n" style="edgeLabel;html=1;align=center;verticalAlign=middle;resizable=0;points=[];" vertex="1" connectable="0" parent="zfkykt9MSWh2Pb5mOjTY-205">
          <mxGeometry x="-0.8237" y="3" relative="1" as="geometry">
            <mxPoint as="offset" />
          </mxGeometry>
        </mxCell>
        <mxCell id="zfkykt9MSWh2Pb5mOjTY-216" style="edgeStyle=orthogonalEdgeStyle;rounded=0;orthogonalLoop=1;jettySize=auto;html=1;" edge="1" parent="1" source="zfkykt9MSWh2Pb5mOjTY-209" target="zfkykt9MSWh2Pb5mOjTY-215">
          <mxGeometry relative="1" as="geometry" />
        </mxCell>
        <mxCell id="zfkykt9MSWh2Pb5mOjTY-219" value="0, 1" style="edgeLabel;html=1;align=center;verticalAlign=middle;resizable=0;points=[];" vertex="1" connectable="0" parent="zfkykt9MSWh2Pb5mOjTY-216">
          <mxGeometry x="-0.4784" y="-3" relative="1" as="geometry">
            <mxPoint as="offset" />
          </mxGeometry>
        </mxCell>
        <mxCell id="zfkykt9MSWh2Pb5mOjTY-209" value="Competition" style="swimlane;fontStyle=0;childLayout=stackLayout;horizontal=1;startSize=26;fillColor=none;horizontalStack=0;resizeParent=1;resizeParentMax=0;resizeLast=0;collapsible=1;marginBottom=0;whiteSpace=wrap;html=1;" vertex="1" parent="1">
          <mxGeometry x="315" y="792" width="230" height="104" as="geometry" />
        </mxCell>
        <mxCell id="zfkykt9MSWh2Pb5mOjTY-210" value="id: int" style="text;strokeColor=none;fillColor=none;align=left;verticalAlign=top;spacingLeft=4;spacingRight=4;overflow=hidden;rotatable=0;points=[[0,0.5],[1,0.5]];portConstraint=eastwest;whiteSpace=wrap;html=1;" vertex="1" parent="zfkykt9MSWh2Pb5mOjTY-209">
          <mxGeometry y="26" width="230" height="26" as="geometry" />
        </mxCell>
        <mxCell id="zfkykt9MSWh2Pb5mOjTY-211" value="address: varchar" style="text;strokeColor=none;fillColor=none;align=left;verticalAlign=top;spacingLeft=4;spacingRight=4;overflow=hidden;rotatable=0;points=[[0,0.5],[1,0.5]];portConstraint=eastwest;whiteSpace=wrap;html=1;" vertex="1" parent="zfkykt9MSWh2Pb5mOjTY-209">
          <mxGeometry y="52" width="230" height="26" as="geometry" />
        </mxCell>
        <mxCell id="zfkykt9MSWh2Pb5mOjTY-212" value="date_time: datetime" style="text;strokeColor=none;fillColor=none;align=left;verticalAlign=top;spacingLeft=4;spacingRight=4;overflow=hidden;rotatable=0;points=[[0,0.5],[1,0.5]];portConstraint=eastwest;whiteSpace=wrap;html=1;" vertex="1" parent="zfkykt9MSWh2Pb5mOjTY-209">
          <mxGeometry y="78" width="230" height="26" as="geometry" />
        </mxCell>
        <mxCell id="zfkykt9MSWh2Pb5mOjTY-215" value="Is&lt;div&gt;&lt;br&gt;&lt;/div&gt;&lt;div&gt;&lt;br&gt;&lt;/div&gt;" style="shape=lineEllipse;perimeter=ellipsePerimeter;whiteSpace=wrap;html=1;backgroundOutline=1;" vertex="1" parent="1">
          <mxGeometry x="390" y="620" width="80" height="80" as="geometry" />
        </mxCell>
        <mxCell id="zfkykt9MSWh2Pb5mOjTY-223" value="&lt;b style=&quot;font-size: 72px;&quot;&gt;MLD&lt;/b&gt;" style="rounded=1;whiteSpace=wrap;html=1;fontSize=72;fillColor=#fff2cc;strokeColor=#d6b656;" vertex="1" parent="1">
          <mxGeometry x="-630" y="1130" width="690" height="160" as="geometry" />
        </mxCell>
        <mxCell id="zfkykt9MSWh2Pb5mOjTY-346" style="edgeStyle=orthogonalEdgeStyle;rounded=0;orthogonalLoop=1;jettySize=auto;html=1;strokeColor=default;endArrow=none;endFill=0;" edge="1" parent="1" source="zfkykt9MSWh2Pb5mOjTY-230" target="zfkykt9MSWh2Pb5mOjTY-317">
          <mxGeometry relative="1" as="geometry">
            <Array as="points">
              <mxPoint x="-370" y="2109" />
              <mxPoint x="-370" y="2109" />
            </Array>
          </mxGeometry>
        </mxCell>
        <mxCell id="zfkykt9MSWh2Pb5mOjTY-359" style="edgeStyle=orthogonalEdgeStyle;rounded=0;orthogonalLoop=1;jettySize=auto;html=1;entryX=0;entryY=0.5;entryDx=0;entryDy=0;endArrow=none;endFill=0;" edge="1" parent="1" source="zfkykt9MSWh2Pb5mOjTY-230" target="zfkykt9MSWh2Pb5mOjTY-103">
          <mxGeometry relative="1" as="geometry" />
        </mxCell>
        <mxCell id="zfkykt9MSWh2Pb5mOjTY-370" style="edgeStyle=orthogonalEdgeStyle;rounded=0;orthogonalLoop=1;jettySize=auto;html=1;endArrow=none;endFill=0;" edge="1" parent="1" source="zfkykt9MSWh2Pb5mOjTY-230" target="zfkykt9MSWh2Pb5mOjTY-259">
          <mxGeometry relative="1" as="geometry">
            <Array as="points">
              <mxPoint x="-176" y="2290" />
              <mxPoint x="1179" y="2290" />
            </Array>
          </mxGeometry>
        </mxCell>
        <mxCell id="zfkykt9MSWh2Pb5mOjTY-230" value="Player" style="swimlane;fontStyle=0;childLayout=stackLayout;horizontal=1;startSize=26;fillColor=none;horizontalStack=0;resizeParent=1;resizeParentMax=0;resizeLast=0;collapsible=1;marginBottom=0;whiteSpace=wrap;html=1;" vertex="1" parent="1">
          <mxGeometry x="-291" y="1992" width="230" height="182" as="geometry" />
        </mxCell>
        <mxCell id="zfkykt9MSWh2Pb5mOjTY-231" value="id: int" style="text;strokeColor=#6D1F00;fillColor=#a0522d;align=left;verticalAlign=top;spacingLeft=4;spacingRight=4;overflow=hidden;rotatable=0;points=[[0,0.5],[1,0.5]];portConstraint=eastwest;whiteSpace=wrap;html=1;fontColor=#ffffff;" vertex="1" parent="zfkykt9MSWh2Pb5mOjTY-230">
          <mxGeometry y="26" width="230" height="26" as="geometry" />
        </mxCell>
        <mxCell id="zfkykt9MSWh2Pb5mOjTY-232" value="licence: varchar" style="text;strokeColor=none;fillColor=none;align=left;verticalAlign=top;spacingLeft=4;spacingRight=4;overflow=hidden;rotatable=0;points=[[0,0.5],[1,0.5]];portConstraint=eastwest;whiteSpace=wrap;html=1;" vertex="1" parent="zfkykt9MSWh2Pb5mOjTY-230">
          <mxGeometry y="52" width="230" height="26" as="geometry" />
        </mxCell>
        <mxCell id="zfkykt9MSWh2Pb5mOjTY-233" value="force_index: varchar" style="text;strokeColor=none;fillColor=none;align=left;verticalAlign=top;spacingLeft=4;spacingRight=4;overflow=hidden;rotatable=0;points=[[0,0.5],[1,0.5]];portConstraint=eastwest;whiteSpace=wrap;html=1;" vertex="1" parent="zfkykt9MSWh2Pb5mOjTY-230">
          <mxGeometry y="78" width="230" height="26" as="geometry" />
        </mxCell>
        <mxCell id="zfkykt9MSWh2Pb5mOjTY-234" value="ranking: enum" style="text;strokeColor=none;fillColor=none;align=left;verticalAlign=top;spacingLeft=4;spacingRight=4;overflow=hidden;rotatable=0;points=[[0,0.5],[1,0.5]];portConstraint=eastwest;whiteSpace=wrap;html=1;" vertex="1" parent="zfkykt9MSWh2Pb5mOjTY-230">
          <mxGeometry y="104" width="230" height="26" as="geometry" />
        </mxCell>
        <mxCell id="zfkykt9MSWh2Pb5mOjTY-343" value="fk member_id: int" style="text;strokeColor=#d6b656;fillColor=#fff2cc;align=left;verticalAlign=top;spacingLeft=4;spacingRight=4;overflow=hidden;rotatable=0;points=[[0,0.5],[1,0.5]];portConstraint=eastwest;whiteSpace=wrap;html=1;" vertex="1" parent="zfkykt9MSWh2Pb5mOjTY-230">
          <mxGeometry y="130" width="230" height="26" as="geometry" />
        </mxCell>
        <mxCell id="zfkykt9MSWh2Pb5mOjTY-369" value="fk team_id: int" style="text;strokeColor=#0e8088;fillColor=#b0e3e6;align=left;verticalAlign=top;spacingLeft=4;spacingRight=4;overflow=hidden;rotatable=0;points=[[0,0.5],[1,0.5]];portConstraint=eastwest;whiteSpace=wrap;html=1;" vertex="1" parent="zfkykt9MSWh2Pb5mOjTY-230">
          <mxGeometry y="156" width="230" height="26" as="geometry" />
        </mxCell>
        <mxCell id="zfkykt9MSWh2Pb5mOjTY-363" style="edgeStyle=orthogonalEdgeStyle;rounded=0;orthogonalLoop=1;jettySize=auto;html=1;entryX=0.5;entryY=0;entryDx=0;entryDy=0;endArrow=none;endFill=0;dashed=1;" edge="1" parent="1" source="zfkykt9MSWh2Pb5mOjTY-241" target="zfkykt9MSWh2Pb5mOjTY-101">
          <mxGeometry relative="1" as="geometry" />
        </mxCell>
        <mxCell id="zfkykt9MSWh2Pb5mOjTY-364" value="Selects a player for an interclub" style="edgeLabel;html=1;align=center;verticalAlign=middle;resizable=0;points=[];" vertex="1" connectable="0" parent="zfkykt9MSWh2Pb5mOjTY-363">
          <mxGeometry x="-0.1894" y="-2" relative="1" as="geometry">
            <mxPoint as="offset" />
          </mxGeometry>
        </mxCell>
        <mxCell id="zfkykt9MSWh2Pb5mOjTY-378" style="edgeStyle=orthogonalEdgeStyle;rounded=0;orthogonalLoop=1;jettySize=auto;html=1;endArrow=none;endFill=0;" edge="1" parent="1" source="zfkykt9MSWh2Pb5mOjTY-241" target="zfkykt9MSWh2Pb5mOjTY-259">
          <mxGeometry relative="1" as="geometry">
            <Array as="points">
              <mxPoint x="1160" y="1665" />
            </Array>
          </mxGeometry>
        </mxCell>
        <mxCell id="zfkykt9MSWh2Pb5mOjTY-241" value="Captain" style="swimlane;fontStyle=0;childLayout=stackLayout;horizontal=1;startSize=26;fillColor=none;horizontalStack=0;resizeParent=1;resizeParentMax=0;resizeLast=0;collapsible=1;marginBottom=0;whiteSpace=wrap;html=1;" vertex="1" parent="1">
          <mxGeometry x="509" y="1600" width="140" height="156" as="geometry" />
        </mxCell>
        <mxCell id="zfkykt9MSWh2Pb5mOjTY-242" value="id: int" style="text;strokeColor=#666666;fillColor=#f5f5f5;align=left;verticalAlign=top;spacingLeft=4;spacingRight=4;overflow=hidden;rotatable=0;points=[[0,0.5],[1,0.5]];portConstraint=eastwest;whiteSpace=wrap;html=1;fontColor=#333333;" vertex="1" parent="zfkykt9MSWh2Pb5mOjTY-241">
          <mxGeometry y="26" width="140" height="26" as="geometry" />
        </mxCell>
        <mxCell id="zfkykt9MSWh2Pb5mOjTY-243" value="date_time: datetime" style="text;strokeColor=none;fillColor=none;align=left;verticalAlign=top;spacingLeft=4;spacingRight=4;overflow=hidden;rotatable=0;points=[[0,0.5],[1,0.5]];portConstraint=eastwest;whiteSpace=wrap;html=1;" vertex="1" parent="zfkykt9MSWh2Pb5mOjTY-241">
          <mxGeometry y="52" width="140" height="26" as="geometry" />
        </mxCell>
        <mxCell id="zfkykt9MSWh2Pb5mOjTY-244" value="is_active: bool" style="text;strokeColor=none;fillColor=none;align=left;verticalAlign=top;spacingLeft=4;spacingRight=4;overflow=hidden;rotatable=0;points=[[0,0.5],[1,0.5]];portConstraint=eastwest;whiteSpace=wrap;html=1;" vertex="1" parent="zfkykt9MSWh2Pb5mOjTY-241">
          <mxGeometry y="78" width="140" height="26" as="geometry" />
        </mxCell>
        <mxCell id="zfkykt9MSWh2Pb5mOjTY-347" value="fk member_id: int" style="text;strokeColor=#d6b656;fillColor=#fff2cc;align=left;verticalAlign=top;spacingLeft=4;spacingRight=4;overflow=hidden;rotatable=0;points=[[0,0.5],[1,0.5]];portConstraint=eastwest;whiteSpace=wrap;html=1;" vertex="1" parent="zfkykt9MSWh2Pb5mOjTY-241">
          <mxGeometry y="104" width="140" height="26" as="geometry" />
        </mxCell>
        <mxCell id="zfkykt9MSWh2Pb5mOjTY-379" value="fk team_id: int" style="text;strokeColor=#0e8088;fillColor=#b0e3e6;align=left;verticalAlign=top;spacingLeft=4;spacingRight=4;overflow=hidden;rotatable=0;points=[[0,0.5],[1,0.5]];portConstraint=eastwest;whiteSpace=wrap;html=1;" vertex="1" parent="zfkykt9MSWh2Pb5mOjTY-241">
          <mxGeometry y="130" width="140" height="26" as="geometry" />
        </mxCell>
        <mxCell id="zfkykt9MSWh2Pb5mOjTY-360" style="edgeStyle=orthogonalEdgeStyle;rounded=0;orthogonalLoop=1;jettySize=auto;html=1;endArrow=none;endFill=0;" edge="1" parent="1" source="zfkykt9MSWh2Pb5mOjTY-249" target="zfkykt9MSWh2Pb5mOjTY-101">
          <mxGeometry relative="1" as="geometry" />
        </mxCell>
        <mxCell id="zfkykt9MSWh2Pb5mOjTY-368" style="edgeStyle=orthogonalEdgeStyle;rounded=0;orthogonalLoop=1;jettySize=auto;html=1;endArrow=none;endFill=0;" edge="1" parent="1" source="zfkykt9MSWh2Pb5mOjTY-249" target="zfkykt9MSWh2Pb5mOjTY-337">
          <mxGeometry relative="1" as="geometry" />
        </mxCell>
        <mxCell id="zfkykt9MSWh2Pb5mOjTY-249" value="Interclub" style="swimlane;fontStyle=0;childLayout=stackLayout;horizontal=1;startSize=26;fillColor=none;horizontalStack=0;resizeParent=1;resizeParentMax=0;resizeLast=0;collapsible=1;marginBottom=0;whiteSpace=wrap;html=1;" vertex="1" parent="1">
          <mxGeometry x="464" y="1780" width="230" height="198" as="geometry" />
        </mxCell>
        <mxCell id="zfkykt9MSWh2Pb5mOjTY-250" value="id" style="text;strokeColor=#82b366;fillColor=#d5e8d4;align=left;verticalAlign=top;spacingLeft=4;spacingRight=4;overflow=hidden;rotatable=0;points=[[0,0.5],[1,0.5]];portConstraint=eastwest;whiteSpace=wrap;html=1;" vertex="1" parent="zfkykt9MSWh2Pb5mOjTY-249">
          <mxGeometry y="26" width="230" height="26" as="geometry" />
        </mxCell>
        <mxCell id="zfkykt9MSWh2Pb5mOjTY-251" value="score: varchar" style="text;strokeColor=none;fillColor=none;align=left;verticalAlign=top;spacingLeft=4;spacingRight=4;overflow=hidden;rotatable=0;points=[[0,0.5],[1,0.5]];portConstraint=eastwest;whiteSpace=wrap;html=1;" vertex="1" parent="zfkykt9MSWh2Pb5mOjTY-249">
          <mxGeometry y="52" width="230" height="26" as="geometry" />
        </mxCell>
        <mxCell id="zfkykt9MSWh2Pb5mOjTY-252" value="result (enum won-lost-draw-withdrawal" style="text;strokeColor=none;fillColor=none;align=left;verticalAlign=top;spacingLeft=4;spacingRight=4;overflow=hidden;rotatable=0;points=[[0,0.5],[1,0.5]];portConstraint=eastwest;whiteSpace=wrap;html=1;" vertex="1" parent="zfkykt9MSWh2Pb5mOjTY-249">
          <mxGeometry y="78" width="230" height="30" as="geometry" />
        </mxCell>
        <mxCell id="zfkykt9MSWh2Pb5mOjTY-367" value="fk competition_id: int" style="text;strokeColor=#314354;fillColor=#647687;align=left;verticalAlign=top;spacingLeft=4;spacingRight=4;overflow=hidden;rotatable=0;points=[[0,0.5],[1,0.5]];portConstraint=eastwest;whiteSpace=wrap;html=1;fontColor=#ffffff;" vertex="1" parent="zfkykt9MSWh2Pb5mOjTY-249">
          <mxGeometry y="108" width="230" height="30" as="geometry" />
        </mxCell>
        <mxCell id="zfkykt9MSWh2Pb5mOjTY-380" value="fk visited_team_id: int" style="text;strokeColor=#0e8088;fillColor=#b0e3e6;align=left;verticalAlign=top;spacingLeft=4;spacingRight=4;overflow=hidden;rotatable=0;points=[[0,0.5],[1,0.5]];portConstraint=eastwest;whiteSpace=wrap;html=1;" vertex="1" parent="zfkykt9MSWh2Pb5mOjTY-249">
          <mxGeometry y="138" width="230" height="30" as="geometry" />
        </mxCell>
        <mxCell id="zfkykt9MSWh2Pb5mOjTY-381" value="fk visiting_team_id: int" style="text;strokeColor=#0e8088;fillColor=#b0e3e6;align=left;verticalAlign=top;spacingLeft=4;spacingRight=4;overflow=hidden;rotatable=0;points=[[0,0.5],[1,0.5]];portConstraint=eastwest;whiteSpace=wrap;html=1;" vertex="1" parent="zfkykt9MSWh2Pb5mOjTY-249">
          <mxGeometry y="168" width="230" height="30" as="geometry" />
        </mxCell>
        <mxCell id="zfkykt9MSWh2Pb5mOjTY-372" style="edgeStyle=orthogonalEdgeStyle;rounded=0;orthogonalLoop=1;jettySize=auto;html=1;entryX=0.5;entryY=0;entryDx=0;entryDy=0;endArrow=none;endFill=0;" edge="1" parent="1" source="zfkykt9MSWh2Pb5mOjTY-259" target="zfkykt9MSWh2Pb5mOjTY-288">
          <mxGeometry relative="1" as="geometry" />
        </mxCell>
        <mxCell id="zfkykt9MSWh2Pb5mOjTY-393" style="edgeStyle=orthogonalEdgeStyle;rounded=0;orthogonalLoop=1;jettySize=auto;html=1;endArrow=none;endFill=0;" edge="1" parent="1" source="zfkykt9MSWh2Pb5mOjTY-259" target="zfkykt9MSWh2Pb5mOjTY-249">
          <mxGeometry relative="1" as="geometry">
            <Array as="points">
              <mxPoint x="900" y="1820" />
              <mxPoint x="900" y="1820" />
            </Array>
          </mxGeometry>
        </mxCell>
        <mxCell id="zfkykt9MSWh2Pb5mOjTY-259" value="Team" style="swimlane;fontStyle=0;childLayout=stackLayout;horizontal=1;startSize=26;fillColor=none;horizontalStack=0;resizeParent=1;resizeParentMax=0;resizeLast=0;collapsible=1;marginBottom=0;whiteSpace=wrap;html=1;" vertex="1" parent="1">
          <mxGeometry x="1109" y="1757" width="140" height="234" as="geometry" />
        </mxCell>
        <mxCell id="zfkykt9MSWh2Pb5mOjTY-260" value="id: int" style="text;fillColor=#b0e3e6;align=left;verticalAlign=top;spacingLeft=4;spacingRight=4;overflow=hidden;rotatable=0;points=[[0,0.5],[1,0.5]];portConstraint=eastwest;whiteSpace=wrap;html=1;strokeColor=#0e8088;" vertex="1" parent="zfkykt9MSWh2Pb5mOjTY-259">
          <mxGeometry y="26" width="140" height="26" as="geometry" />
        </mxCell>
        <mxCell id="zfkykt9MSWh2Pb5mOjTY-261" value="letter: varchar" style="text;strokeColor=none;fillColor=none;align=left;verticalAlign=top;spacingLeft=4;spacingRight=4;overflow=hidden;rotatable=0;points=[[0,0.5],[1,0.5]];portConstraint=eastwest;whiteSpace=wrap;html=1;" vertex="1" parent="zfkykt9MSWh2Pb5mOjTY-259">
          <mxGeometry y="52" width="140" height="26" as="geometry" />
        </mxCell>
        <mxCell id="zfkykt9MSWh2Pb5mOjTY-262" value="is_visitor: bool" style="text;strokeColor=none;fillColor=none;align=left;verticalAlign=top;spacingLeft=4;spacingRight=4;overflow=hidden;rotatable=0;points=[[0,0.5],[1,0.5]];portConstraint=eastwest;whiteSpace=wrap;html=1;" vertex="1" parent="zfkykt9MSWh2Pb5mOjTY-259">
          <mxGeometry y="78" width="140" height="26" as="geometry" />
        </mxCell>
        <mxCell id="zfkykt9MSWh2Pb5mOjTY-263" value="is_visited: bool" style="text;strokeColor=none;fillColor=none;align=left;verticalAlign=top;spacingLeft=4;spacingRight=4;overflow=hidden;rotatable=0;points=[[0,0.5],[1,0.5]];portConstraint=eastwest;whiteSpace=wrap;html=1;" vertex="1" parent="zfkykt9MSWh2Pb5mOjTY-259">
          <mxGeometry y="104" width="140" height="26" as="geometry" />
        </mxCell>
        <mxCell id="zfkykt9MSWh2Pb5mOjTY-371" value="fk season_id: int" style="text;strokeColor=#ae4132;fillColor=#fad9d5;align=left;verticalAlign=top;spacingLeft=4;spacingRight=4;overflow=hidden;rotatable=0;points=[[0,0.5],[1,0.5]];portConstraint=eastwest;whiteSpace=wrap;html=1;" vertex="1" parent="zfkykt9MSWh2Pb5mOjTY-259">
          <mxGeometry y="130" width="140" height="26" as="geometry" />
        </mxCell>
        <mxCell id="zfkykt9MSWh2Pb5mOjTY-373" value="fk league_id: int" style="text;strokeColor=#23445d;fillColor=#bac8d3;align=left;verticalAlign=top;spacingLeft=4;spacingRight=4;overflow=hidden;rotatable=0;points=[[0,0.5],[1,0.5]];portConstraint=eastwest;whiteSpace=wrap;html=1;" vertex="1" parent="zfkykt9MSWh2Pb5mOjTY-259">
          <mxGeometry y="156" width="140" height="26" as="geometry" />
        </mxCell>
        <mxCell id="zfkykt9MSWh2Pb5mOjTY-375" value="fk club_id: int" style="text;strokeColor=#b85450;fillColor=#f8cecc;align=left;verticalAlign=top;spacingLeft=4;spacingRight=4;overflow=hidden;rotatable=0;points=[[0,0.5],[1,0.5]];portConstraint=eastwest;whiteSpace=wrap;html=1;" vertex="1" parent="zfkykt9MSWh2Pb5mOjTY-259">
          <mxGeometry y="182" width="140" height="26" as="geometry" />
        </mxCell>
        <mxCell id="zfkykt9MSWh2Pb5mOjTY-377" value="fk captain_id: int" style="text;strokeColor=#666666;fillColor=#f5f5f5;align=left;verticalAlign=top;spacingLeft=4;spacingRight=4;overflow=hidden;rotatable=0;points=[[0,0.5],[1,0.5]];portConstraint=eastwest;whiteSpace=wrap;html=1;fontColor=#333333;" vertex="1" parent="zfkykt9MSWh2Pb5mOjTY-259">
          <mxGeometry y="208" width="140" height="26" as="geometry" />
        </mxCell>
        <mxCell id="zfkykt9MSWh2Pb5mOjTY-288" value="Season" style="swimlane;fontStyle=0;childLayout=stackLayout;horizontal=1;startSize=26;fillColor=none;horizontalStack=0;resizeParent=1;resizeParentMax=0;resizeLast=0;collapsible=1;marginBottom=0;whiteSpace=wrap;html=1;" vertex="1" parent="1">
          <mxGeometry x="884" y="2090" width="140" height="104" as="geometry" />
        </mxCell>
        <mxCell id="zfkykt9MSWh2Pb5mOjTY-289" value="id: int" style="text;strokeColor=#ae4132;fillColor=#fad9d5;align=left;verticalAlign=top;spacingLeft=4;spacingRight=4;overflow=hidden;rotatable=0;points=[[0,0.5],[1,0.5]];portConstraint=eastwest;whiteSpace=wrap;html=1;" vertex="1" parent="zfkykt9MSWh2Pb5mOjTY-288">
          <mxGeometry y="26" width="140" height="26" as="geometry" />
        </mxCell>
        <mxCell id="zfkykt9MSWh2Pb5mOjTY-290" value="start_year: int (4)" style="text;strokeColor=none;fillColor=none;align=left;verticalAlign=top;spacingLeft=4;spacingRight=4;overflow=hidden;rotatable=0;points=[[0,0.5],[1,0.5]];portConstraint=eastwest;whiteSpace=wrap;html=1;" vertex="1" parent="zfkykt9MSWh2Pb5mOjTY-288">
          <mxGeometry y="52" width="140" height="26" as="geometry" />
        </mxCell>
        <mxCell id="zfkykt9MSWh2Pb5mOjTY-291" value="end_year: int (4)" style="text;strokeColor=none;fillColor=none;align=left;verticalAlign=top;spacingLeft=4;spacingRight=4;overflow=hidden;rotatable=0;points=[[0,0.5],[1,0.5]];portConstraint=eastwest;whiteSpace=wrap;html=1;" vertex="1" parent="zfkykt9MSWh2Pb5mOjTY-288">
          <mxGeometry y="78" width="140" height="26" as="geometry" />
        </mxCell>
        <mxCell id="zfkykt9MSWh2Pb5mOjTY-374" style="edgeStyle=orthogonalEdgeStyle;rounded=0;orthogonalLoop=1;jettySize=auto;html=1;endArrow=none;endFill=0;" edge="1" parent="1" source="zfkykt9MSWh2Pb5mOjTY-299" target="zfkykt9MSWh2Pb5mOjTY-259">
          <mxGeometry relative="1" as="geometry" />
        </mxCell>
        <mxCell id="zfkykt9MSWh2Pb5mOjTY-299" value="League" style="swimlane;fontStyle=0;childLayout=stackLayout;horizontal=1;startSize=26;fillColor=none;horizontalStack=0;resizeParent=1;resizeParentMax=0;resizeLast=0;collapsible=1;marginBottom=0;whiteSpace=wrap;html=1;" vertex="1" parent="1">
          <mxGeometry x="1460" y="1796" width="140" height="104" as="geometry" />
        </mxCell>
        <mxCell id="zfkykt9MSWh2Pb5mOjTY-300" value="id: int" style="text;strokeColor=#23445d;fillColor=#bac8d3;align=left;verticalAlign=top;spacingLeft=4;spacingRight=4;overflow=hidden;rotatable=0;points=[[0,0.5],[1,0.5]];portConstraint=eastwest;whiteSpace=wrap;html=1;" vertex="1" parent="zfkykt9MSWh2Pb5mOjTY-299">
          <mxGeometry y="26" width="140" height="26" as="geometry" />
        </mxCell>
        <mxCell id="zfkykt9MSWh2Pb5mOjTY-301" value="start_year: int (4)" style="text;strokeColor=none;fillColor=none;align=left;verticalAlign=top;spacingLeft=4;spacingRight=4;overflow=hidden;rotatable=0;points=[[0,0.5],[1,0.5]];portConstraint=eastwest;whiteSpace=wrap;html=1;" vertex="1" parent="zfkykt9MSWh2Pb5mOjTY-299">
          <mxGeometry y="52" width="140" height="26" as="geometry" />
        </mxCell>
        <mxCell id="zfkykt9MSWh2Pb5mOjTY-302" value="end_year: int (4)" style="text;strokeColor=none;fillColor=none;align=left;verticalAlign=top;spacingLeft=4;spacingRight=4;overflow=hidden;rotatable=0;points=[[0,0.5],[1,0.5]];portConstraint=eastwest;whiteSpace=wrap;html=1;" vertex="1" parent="zfkykt9MSWh2Pb5mOjTY-299">
          <mxGeometry y="78" width="140" height="26" as="geometry" />
        </mxCell>
        <mxCell id="zfkykt9MSWh2Pb5mOjTY-350" style="edgeStyle=orthogonalEdgeStyle;rounded=0;orthogonalLoop=1;jettySize=auto;html=1;entryX=0.5;entryY=0;entryDx=0;entryDy=0;endArrow=none;endFill=0;" edge="1" parent="1" source="zfkykt9MSWh2Pb5mOjTY-306" target="zfkykt9MSWh2Pb5mOjTY-317">
          <mxGeometry relative="1" as="geometry" />
        </mxCell>
        <mxCell id="zfkykt9MSWh2Pb5mOjTY-376" style="edgeStyle=orthogonalEdgeStyle;rounded=0;orthogonalLoop=1;jettySize=auto;html=1;entryX=0.5;entryY=0;entryDx=0;entryDy=0;endArrow=none;endFill=0;" edge="1" parent="1" source="zfkykt9MSWh2Pb5mOjTY-306" target="zfkykt9MSWh2Pb5mOjTY-259">
          <mxGeometry relative="1" as="geometry" />
        </mxCell>
        <mxCell id="zfkykt9MSWh2Pb5mOjTY-306" value="Club" style="swimlane;fontStyle=0;childLayout=stackLayout;horizontal=1;startSize=26;fillColor=none;horizontalStack=0;resizeParent=1;resizeParentMax=0;resizeLast=0;collapsible=1;marginBottom=0;whiteSpace=wrap;html=1;" vertex="1" parent="1">
          <mxGeometry x="509" y="1445" width="140" height="130" as="geometry" />
        </mxCell>
        <mxCell id="zfkykt9MSWh2Pb5mOjTY-307" value="id: int" style="text;strokeColor=#b85450;fillColor=#f8cecc;align=left;verticalAlign=top;spacingLeft=4;spacingRight=4;overflow=hidden;rotatable=0;points=[[0,0.5],[1,0.5]];portConstraint=eastwest;whiteSpace=wrap;html=1;" vertex="1" parent="zfkykt9MSWh2Pb5mOjTY-306">
          <mxGeometry y="26" width="140" height="26" as="geometry" />
        </mxCell>
        <mxCell id="zfkykt9MSWh2Pb5mOjTY-308" value="name: varchar" style="text;strokeColor=none;fillColor=none;align=left;verticalAlign=top;spacingLeft=4;spacingRight=4;overflow=hidden;rotatable=0;points=[[0,0.5],[1,0.5]];portConstraint=eastwest;whiteSpace=wrap;html=1;" vertex="1" parent="zfkykt9MSWh2Pb5mOjTY-306">
          <mxGeometry y="52" width="140" height="26" as="geometry" />
        </mxCell>
        <mxCell id="zfkykt9MSWh2Pb5mOjTY-309" value="licence: varchar" style="text;strokeColor=none;fillColor=none;align=left;verticalAlign=top;spacingLeft=4;spacingRight=4;overflow=hidden;rotatable=0;points=[[0,0.5],[1,0.5]];portConstraint=eastwest;whiteSpace=wrap;html=1;" vertex="1" parent="zfkykt9MSWh2Pb5mOjTY-306">
          <mxGeometry y="78" width="140" height="26" as="geometry" />
        </mxCell>
        <mxCell id="zfkykt9MSWh2Pb5mOjTY-310" value="address: varchar" style="text;strokeColor=none;fillColor=none;align=left;verticalAlign=top;spacingLeft=4;spacingRight=4;overflow=hidden;rotatable=0;points=[[0,0.5],[1,0.5]];portConstraint=eastwest;whiteSpace=wrap;html=1;" vertex="1" parent="zfkykt9MSWh2Pb5mOjTY-306">
          <mxGeometry y="104" width="140" height="26" as="geometry" />
        </mxCell>
        <mxCell id="zfkykt9MSWh2Pb5mOjTY-348" style="edgeStyle=orthogonalEdgeStyle;rounded=0;orthogonalLoop=1;jettySize=auto;html=1;endArrow=none;endFill=0;entryX=0.5;entryY=0;entryDx=0;entryDy=0;exitX=0.75;exitY=0;exitDx=0;exitDy=0;" edge="1" parent="1" source="zfkykt9MSWh2Pb5mOjTY-317" target="zfkykt9MSWh2Pb5mOjTY-241">
          <mxGeometry relative="1" as="geometry">
            <Array as="points">
              <mxPoint x="-624" y="2010" />
              <mxPoint x="-624" y="1900" />
              <mxPoint x="-624" y="1580" />
              <mxPoint x="579" y="1580" />
            </Array>
          </mxGeometry>
        </mxCell>
        <mxCell id="zfkykt9MSWh2Pb5mOjTY-317" value="Member" style="swimlane;fontStyle=0;childLayout=stackLayout;horizontal=1;startSize=26;fillColor=none;horizontalStack=0;resizeParent=1;resizeParentMax=0;resizeLast=0;collapsible=1;marginBottom=0;whiteSpace=wrap;html=1;" vertex="1" parent="1">
          <mxGeometry x="-796" y="2044" width="230" height="182" as="geometry" />
        </mxCell>
        <mxCell id="zfkykt9MSWh2Pb5mOjTY-318" value="id: int" style="text;strokeColor=#d6b656;fillColor=#fff2cc;align=left;verticalAlign=top;spacingLeft=4;spacingRight=4;overflow=hidden;rotatable=0;points=[[0,0.5],[1,0.5]];portConstraint=eastwest;whiteSpace=wrap;html=1;" vertex="1" parent="zfkykt9MSWh2Pb5mOjTY-317">
          <mxGeometry y="26" width="230" height="26" as="geometry" />
        </mxCell>
        <mxCell id="zfkykt9MSWh2Pb5mOjTY-319" value="first_name: varchar" style="text;strokeColor=none;fillColor=none;align=left;verticalAlign=top;spacingLeft=4;spacingRight=4;overflow=hidden;rotatable=0;points=[[0,0.5],[1,0.5]];portConstraint=eastwest;whiteSpace=wrap;html=1;" vertex="1" parent="zfkykt9MSWh2Pb5mOjTY-317">
          <mxGeometry y="52" width="230" height="26" as="geometry" />
        </mxCell>
        <mxCell id="zfkykt9MSWh2Pb5mOjTY-320" value="last_name: varchar" style="text;strokeColor=none;fillColor=none;align=left;verticalAlign=top;spacingLeft=4;spacingRight=4;overflow=hidden;rotatable=0;points=[[0,0.5],[1,0.5]];portConstraint=eastwest;whiteSpace=wrap;html=1;" vertex="1" parent="zfkykt9MSWh2Pb5mOjTY-317">
          <mxGeometry y="78" width="230" height="26" as="geometry" />
        </mxCell>
        <mxCell id="zfkykt9MSWh2Pb5mOjTY-321" value="is_active: boolean" style="text;strokeColor=none;fillColor=none;align=left;verticalAlign=top;spacingLeft=4;spacingRight=4;overflow=hidden;rotatable=0;points=[[0,0.5],[1,0.5]];portConstraint=eastwest;whiteSpace=wrap;html=1;" vertex="1" parent="zfkykt9MSWh2Pb5mOjTY-317">
          <mxGeometry y="104" width="230" height="26" as="geometry" />
        </mxCell>
        <mxCell id="zfkykt9MSWh2Pb5mOjTY-349" value="fk club_id: int" style="text;strokeColor=#b85450;fillColor=#f8cecc;align=left;verticalAlign=top;spacingLeft=4;spacingRight=4;overflow=hidden;rotatable=0;points=[[0,0.5],[1,0.5]];portConstraint=eastwest;whiteSpace=wrap;html=1;" vertex="1" parent="zfkykt9MSWh2Pb5mOjTY-317">
          <mxGeometry y="130" width="230" height="26" as="geometry" />
        </mxCell>
        <mxCell id="zfkykt9MSWh2Pb5mOjTY-357" value="fk comittte_id: int" style="text;strokeColor=#6c8ebf;fillColor=#dae8fc;align=left;verticalAlign=top;spacingLeft=4;spacingRight=4;overflow=hidden;rotatable=0;points=[[0,0.5],[1,0.5]];portConstraint=eastwest;whiteSpace=wrap;html=1;" vertex="1" parent="zfkykt9MSWh2Pb5mOjTY-317">
          <mxGeometry y="156" width="230" height="26" as="geometry" />
        </mxCell>
        <mxCell id="zfkykt9MSWh2Pb5mOjTY-328" value="Comittee Member" style="swimlane;fontStyle=0;childLayout=stackLayout;horizontal=1;startSize=26;fillColor=none;horizontalStack=0;resizeParent=1;resizeParentMax=0;resizeLast=0;collapsible=1;marginBottom=0;whiteSpace=wrap;html=1;" vertex="1" parent="1">
          <mxGeometry x="-506" y="1340" width="140" height="104" as="geometry" />
        </mxCell>
        <mxCell id="zfkykt9MSWh2Pb5mOjTY-329" value="id: int" style="text;strokeColor=#6c8ebf;fillColor=#dae8fc;align=left;verticalAlign=top;spacingLeft=4;spacingRight=4;overflow=hidden;rotatable=0;points=[[0,0.5],[1,0.5]];portConstraint=eastwest;whiteSpace=wrap;html=1;" vertex="1" parent="zfkykt9MSWh2Pb5mOjTY-328">
          <mxGeometry y="26" width="140" height="26" as="geometry" />
        </mxCell>
        <mxCell id="zfkykt9MSWh2Pb5mOjTY-330" value="date_time: datetime" style="text;strokeColor=none;fillColor=none;align=left;verticalAlign=top;spacingLeft=4;spacingRight=4;overflow=hidden;rotatable=0;points=[[0,0.5],[1,0.5]];portConstraint=eastwest;whiteSpace=wrap;html=1;" vertex="1" parent="zfkykt9MSWh2Pb5mOjTY-328">
          <mxGeometry y="52" width="140" height="26" as="geometry" />
        </mxCell>
        <mxCell id="zfkykt9MSWh2Pb5mOjTY-331" value="is_active: boolean" style="text;strokeColor=none;fillColor=none;align=left;verticalAlign=top;spacingLeft=4;spacingRight=4;overflow=hidden;rotatable=0;points=[[0,0.5],[1,0.5]];portConstraint=eastwest;whiteSpace=wrap;html=1;" vertex="1" parent="zfkykt9MSWh2Pb5mOjTY-328">
          <mxGeometry y="78" width="140" height="26" as="geometry" />
        </mxCell>
        <mxCell id="zfkykt9MSWh2Pb5mOjTY-337" value="Competition" style="swimlane;fontStyle=0;childLayout=stackLayout;horizontal=1;startSize=26;fillColor=none;horizontalStack=0;resizeParent=1;resizeParentMax=0;resizeLast=0;collapsible=1;marginBottom=0;whiteSpace=wrap;html=1;" vertex="1" parent="1">
          <mxGeometry x="329" y="2122" width="230" height="104" as="geometry" />
        </mxCell>
        <mxCell id="zfkykt9MSWh2Pb5mOjTY-338" value="id: int" style="text;strokeColor=#314354;fillColor=#647687;align=left;verticalAlign=top;spacingLeft=4;spacingRight=4;overflow=hidden;rotatable=0;points=[[0,0.5],[1,0.5]];portConstraint=eastwest;whiteSpace=wrap;html=1;fontColor=#ffffff;" vertex="1" parent="zfkykt9MSWh2Pb5mOjTY-337">
          <mxGeometry y="26" width="230" height="26" as="geometry" />
        </mxCell>
        <mxCell id="zfkykt9MSWh2Pb5mOjTY-339" value="address: varchar" style="text;strokeColor=none;fillColor=none;align=left;verticalAlign=top;spacingLeft=4;spacingRight=4;overflow=hidden;rotatable=0;points=[[0,0.5],[1,0.5]];portConstraint=eastwest;whiteSpace=wrap;html=1;" vertex="1" parent="zfkykt9MSWh2Pb5mOjTY-337">
          <mxGeometry y="52" width="230" height="26" as="geometry" />
        </mxCell>
        <mxCell id="zfkykt9MSWh2Pb5mOjTY-340" value="date_time: datetime" style="text;strokeColor=none;fillColor=none;align=left;verticalAlign=top;spacingLeft=4;spacingRight=4;overflow=hidden;rotatable=0;points=[[0,0.5],[1,0.5]];portConstraint=eastwest;whiteSpace=wrap;html=1;" vertex="1" parent="zfkykt9MSWh2Pb5mOjTY-337">
          <mxGeometry y="78" width="230" height="26" as="geometry" />
        </mxCell>
        <mxCell id="zfkykt9MSWh2Pb5mOjTY-351" value="Is&lt;div&gt;&lt;br&gt;&lt;/div&gt;&lt;div&gt;&lt;br&gt;&lt;/div&gt;" style="shape=lineEllipse;perimeter=ellipsePerimeter;whiteSpace=wrap;html=1;backgroundOutline=1;" vertex="1" parent="1">
          <mxGeometry x="-840" y="90" width="80" height="80" as="geometry" />
        </mxCell>
        <mxCell id="zfkykt9MSWh2Pb5mOjTY-358" style="edgeStyle=orthogonalEdgeStyle;rounded=0;orthogonalLoop=1;jettySize=auto;html=1;entryX=0.25;entryY=0;entryDx=0;entryDy=0;endArrow=none;endFill=0;" edge="1" parent="1" source="zfkykt9MSWh2Pb5mOjTY-328" target="zfkykt9MSWh2Pb5mOjTY-317">
          <mxGeometry relative="1" as="geometry" />
        </mxCell>
        <mxCell id="zfkykt9MSWh2Pb5mOjTY-365" style="edgeStyle=orthogonalEdgeStyle;rounded=0;orthogonalLoop=1;jettySize=auto;html=1;entryX=0.411;entryY=-0.003;entryDx=0;entryDy=0;endArrow=none;endFill=0;dashed=1;entryPerimeter=0;exitX=0.507;exitY=0.983;exitDx=0;exitDy=0;exitPerimeter=0;" edge="1" parent="1" source="zfkykt9MSWh2Pb5mOjTY-331" target="zfkykt9MSWh2Pb5mOjTY-101">
          <mxGeometry relative="1" as="geometry">
            <mxPoint x="519" y="1675" as="sourcePoint" />
            <mxPoint x="260" y="1870" as="targetPoint" />
          </mxGeometry>
        </mxCell>
        <mxCell id="zfkykt9MSWh2Pb5mOjTY-366" value="Selects a player for an interclub" style="edgeLabel;html=1;align=center;verticalAlign=middle;resizable=0;points=[];" vertex="1" connectable="0" parent="zfkykt9MSWh2Pb5mOjTY-365">
          <mxGeometry x="-0.1894" y="-2" relative="1" as="geometry">
            <mxPoint as="offset" />
          </mxGeometry>
        </mxCell>
      </root>
    </mxGraphModel>
  </diagram>
</mxfile>
